<svg width="20" height="18" viewBox="0 0 20 18" fill="none" xmlns="http://www.w3.org/2000/svg">
<path d="M17.25 2.24976H14.6512L13.3734 0.333506C13.305 0.230898 13.2123 0.146759 13.1035 0.0885423C12.9948 0.030326 12.8733 -0.000170074 12.75 -0.000244141H6.75C6.62665 -0.000170074 6.50522 0.030326 6.39648 0.0885423C6.28773 0.146759 6.19502 0.230898 6.12656 0.333506L4.84781 2.24976H2.25C1.65326 2.24976 1.08097 2.48681 0.65901 2.90877C0.237053 3.33072 0 3.90302 0 4.49976V14.9998C0 15.5965 0.237053 16.1688 0.65901 16.5907C1.08097 17.0127 1.65326 17.2498 2.25 17.2498H17.25C17.8467 17.2498 18.419 17.0127 18.841 16.5907C19.2629 16.1688 19.5 15.5965 19.5 14.9998V4.49976C19.5 3.90302 19.2629 3.33072 18.841 2.90877C18.419 2.48681 17.8467 2.24976 17.25 2.24976ZM18 14.9998C18 15.1987 17.921 15.3894 17.7803 15.5301C17.6397 15.6707 17.4489 15.7498 17.25 15.7498H2.25C2.05109 15.7498 1.86032 15.6707 1.71967 15.5301C1.57902 15.3894 1.5 15.1987 1.5 14.9998V4.49976C1.5 4.30084 1.57902 4.11008 1.71967 3.96943C1.86032 3.82877 2.05109 3.74976 2.25 3.74976H5.25C5.37351 3.74984 5.49512 3.71941 5.60405 3.66119C5.71297 3.60297 5.80583 3.51875 5.87438 3.41601L7.15125 1.49976H12.3478L13.6256 3.41601C13.6942 3.51875 13.787 3.60297 13.896 3.66119C14.0049 3.71941 14.1265 3.74984 14.25 3.74976H17.25C17.4489 3.74976 17.6397 3.82877 17.7803 3.96943C17.921 4.11008 18 4.30084 18 4.49976V14.9998ZM9.75 5.24976C8.93415 5.24976 8.13663 5.49168 7.45827 5.94494C6.77992 6.3982 6.25121 7.04244 5.939 7.79619C5.62679 8.54993 5.5451 9.37933 5.70426 10.1795C5.86342 10.9797 6.25629 11.7147 6.83318 12.2916C7.41008 12.8685 8.14508 13.2613 8.94525 13.4205C9.74542 13.5797 10.5748 13.498 11.3286 13.1858C12.0823 12.8735 12.7266 12.3448 13.1798 11.6665C13.6331 10.9881 13.875 10.1906 13.875 9.37476C13.8738 8.28112 13.4388 7.23263 12.6654 6.45931C11.8921 5.68599 10.8436 5.251 9.75 5.24976ZM9.75 11.9998C9.23082 11.9998 8.72331 11.8458 8.29163 11.5574C7.85995 11.2689 7.5235 10.859 7.32482 10.3793C7.12614 9.89964 7.07415 9.37184 7.17544 8.86264C7.27672 8.35344 7.52673 7.88571 7.89384 7.5186C8.26096 7.15149 8.72869 6.90148 9.23789 6.80019C9.74709 6.69891 10.2749 6.75089 10.7545 6.94957C11.2342 7.14825 11.6442 7.4847 11.9326 7.91638C12.221 8.34806 12.375 8.85558 12.375 9.37476C12.375 10.0709 12.0984 10.7386 11.6062 11.2309C11.1139 11.7232 10.4462 11.9998 9.75 11.9998Z" fill="#3C4045"/>
</svg>
