<svg width="20" height="20" viewBox="0 0 20 20" fill="none" xmlns="http://www.w3.org/2000/svg">
<path d="M13.3834 17.9551C13.6178 17.7207 13.7494 17.4028 13.7494 17.0713C13.7494 16.7399 13.6178 16.422 13.3834 16.1876L7.19594 10.0001L13.3834 3.81256C13.6111 3.57681 13.7371 3.26106 13.7343 2.93331C13.7314 2.60556 13.6 2.29205 13.3682 2.06029C13.1365 1.82853 12.8229 1.69707 12.4952 1.69422C12.1674 1.69137 11.8517 1.81736 11.6159 2.04506L4.54469 9.11631C4.31036 9.35072 4.17871 9.66861 4.17871 10.0001C4.17871 10.3315 4.31036 10.6494 4.54469 10.8838L11.6159 17.9551C11.8504 18.1894 12.1682 18.321 12.4997 18.321C12.8311 18.321 13.149 18.1894 13.3834 17.9551Z" fill="black" fill-opacity="0.2"/>
</svg>
