<svg width="41" height="40" viewBox="0 0 41 40" fill="none" xmlns="http://www.w3.org/2000/svg">
<path d="M25.7223 14.8333C25.9993 14.8333 26.265 14.723 26.4609 14.5265C26.6569 14.33 26.7669 14.0636 26.7669 13.7857C26.7669 13.5079 26.6569 13.2414 26.4609 13.0449C26.265 12.8485 25.9993 12.7381 25.7223 12.7381C25.4452 12.7381 25.1795 12.8485 24.9836 13.0449C24.7877 13.2414 24.6777 13.5079 24.6777 13.7857C24.6777 14.0636 24.7877 14.33 24.9836 14.5265C25.1795 14.723 25.4452 14.8333 25.7223 14.8333ZM25.7223 19.0238C25.9993 19.0238 26.265 18.9134 26.4609 18.717C26.6569 18.5205 26.7669 18.254 26.7669 17.9762C26.7669 17.6983 26.6569 17.4319 26.4609 17.2354C26.265 17.0389 25.9993 16.9286 25.7223 16.9286C25.4452 16.9286 25.1795 17.0389 24.9836 17.2354C24.7877 17.4319 24.6777 17.6983 24.6777 17.9762C24.6777 18.254 24.7877 18.5205 24.9836 18.717C25.1795 18.9134 25.4452 19.0238 25.7223 19.0238ZM21.5438 13.7857C21.5438 14.0636 21.4337 14.33 21.2378 14.5265C21.0419 14.723 20.7762 14.8333 20.4992 14.8333C20.2221 14.8333 19.9564 14.723 19.7605 14.5265C19.5646 14.33 19.4546 14.0636 19.4546 13.7857C19.4546 13.5079 19.5646 13.2414 19.7605 13.0449C19.9564 12.8485 20.2221 12.7381 20.4992 12.7381C20.7762 12.7381 21.0419 12.8485 21.2378 13.0449C21.4337 13.2414 21.5438 13.5079 21.5438 13.7857ZM21.5438 17.9762C21.5438 18.254 21.4337 18.5205 21.2378 18.717C21.0419 18.9134 20.7762 19.0238 20.4992 19.0238C20.2221 19.0238 19.9564 18.9134 19.7605 18.717C19.5646 18.5205 19.4546 18.254 19.4546 17.9762C19.4546 17.6983 19.5646 17.4319 19.7605 17.2354C19.9564 17.0389 20.2221 16.9286 20.4992 16.9286C20.7762 16.9286 21.0419 17.0389 21.2378 17.2354C21.4337 17.4319 21.5438 17.6983 21.5438 17.9762ZM15.2761 14.8333C15.5531 14.8333 15.8188 14.723 16.0147 14.5265C16.2106 14.33 16.3207 14.0636 16.3207 13.7857C16.3207 13.5079 16.2106 13.2414 16.0147 13.0449C15.8188 12.8485 15.5531 12.7381 15.2761 12.7381C14.999 12.7381 14.7333 12.8485 14.5374 13.0449C14.3415 13.2414 14.2314 13.5079 14.2314 13.7857C14.2314 14.0636 14.3415 14.33 14.5374 14.5265C14.7333 14.723 14.999 14.8333 15.2761 14.8333ZM15.2761 19.0238C15.5531 19.0238 15.8188 18.9134 16.0147 18.717C16.2106 18.5205 16.3207 18.254 16.3207 17.9762C16.3207 17.6983 16.2106 17.4319 16.0147 17.2354C15.8188 17.0389 15.5531 16.9286 15.2761 16.9286C14.999 16.9286 14.7333 17.0389 14.5374 17.2354C14.3415 17.4319 14.2314 17.6983 14.2314 17.9762C14.2314 18.254 14.3415 18.5205 14.5374 18.717C14.7333 18.9134 14.999 19.0238 15.2761 19.0238Z" fill="#979797"/>
<path fill-rule="evenodd" clip-rule="evenodd" d="M15.276 2C15.4838 2 15.6831 2.08278 15.83 2.23013C15.977 2.37748 16.0595 2.57733 16.0595 2.78571V3.58505C16.751 3.57143 17.5126 3.57143 18.3504 3.57143H22.6469C23.4857 3.57143 24.2473 3.57143 24.9388 3.58505V2.78571C24.9388 2.57733 25.0213 2.37748 25.1683 2.23013C25.3152 2.08278 25.5145 2 25.7223 2C25.9301 2 26.1293 2.08278 26.2763 2.23013C26.4232 2.37748 26.5057 2.57733 26.5057 2.78571V3.6521C26.7773 3.67305 27.0343 3.69924 27.2777 3.73171C28.502 3.89724 29.4933 4.24505 30.2758 5.02867C31.0571 5.81333 31.404 6.80752 31.569 8.03533C31.7288 9.22962 31.7288 10.7539 31.7288 12.6794V14.892C31.7288 16.8175 31.7288 18.3429 31.569 19.5361C31.404 20.7639 31.0571 21.7581 30.2758 22.5428C29.4933 23.3264 28.502 23.6742 27.2777 23.8397C26.0868 24 24.5669 24 22.6469 24H18.3525C16.4324 24 14.9115 24 13.7216 23.8397C12.4973 23.6742 11.506 23.3264 10.7236 22.5428C9.9422 21.7581 9.59539 20.7639 9.43034 19.5361C9.27051 18.3418 9.27051 16.8175 9.27051 14.892V12.6794C9.27051 10.7539 9.27051 9.22857 9.43034 8.03533C9.59539 6.80752 9.9422 5.81333 10.7236 5.02867C11.506 4.24505 12.4973 3.89724 13.7216 3.73171C13.965 3.69924 14.2231 3.67305 14.4936 3.6521V2.78571C14.4936 2.57751 14.576 2.37782 14.7227 2.2305C14.8694 2.08318 15.0684 2.00028 15.276 2ZM13.9285 5.28952C12.8786 5.43095 12.2728 5.69705 11.8309 6.14019C11.389 6.58333 11.1237 7.19095 10.9826 8.24486C10.9586 8.42295 10.9388 8.61152 10.9221 8.80952H30.0762C30.0595 8.61048 30.0397 8.42295 30.0157 8.24381C29.8746 7.19095 29.6093 6.58333 29.1674 6.14019C28.7256 5.69705 28.1197 5.43095 27.0688 5.28952C25.996 5.14495 24.5805 5.14286 22.5884 5.14286H18.4099C16.4178 5.14286 15.0034 5.14495 13.9285 5.28952ZM10.8364 12.7381C10.8364 11.8434 10.8364 11.065 10.85 10.381H30.1483C30.1619 11.065 30.1619 11.8434 30.1619 12.7381V14.8333C30.1619 16.8311 30.1598 18.2507 30.0157 19.3276C29.8746 20.3805 29.6093 20.9881 29.1674 21.4312C28.7256 21.8744 28.1197 22.1405 27.0688 22.2819C25.996 22.4265 24.5805 22.4286 22.5884 22.4286H18.4099C16.4178 22.4286 15.0034 22.4265 13.9285 22.2819C12.8786 22.1405 12.2728 21.8744 11.8309 21.4312C11.389 20.9881 11.1237 20.3805 10.9826 19.3266C10.8385 18.2507 10.8364 16.8311 10.8364 14.8333V12.7381Z" fill="#979797"/>
<path d="M13.1151 30.773C13.1811 30.7363 13.2508 30.718 13.3241 30.718C13.4048 30.718 13.4745 30.7437 13.5331 30.795C13.5845 30.8243 13.6175 30.8757 13.6321 30.949C13.6395 30.9857 13.6431 31.0957 13.6431 31.279L13.6541 31.598C13.6688 32.082 13.6871 32.335 13.7091 32.357C13.7311 32.379 13.8301 32.39 14.0061 32.39C14.4095 32.39 14.6551 32.3643 14.7431 32.313C14.7871 32.2837 14.8128 32.2397 14.8201 32.181C14.8275 32.1297 14.8385 31.983 14.8531 31.741C14.8751 31.3963 14.8971 31.1653 14.9191 31.048C14.9558 30.872 15.0438 30.762 15.1831 30.718C15.2271 30.7033 15.2638 30.696 15.2931 30.696C15.3885 30.696 15.4838 30.7437 15.5791 30.839L15.7001 30.971L15.6781 31.499C15.6488 31.9537 15.6305 32.5513 15.6231 33.292C15.6158 33.8493 15.6048 34.205 15.5901 34.359C15.5828 34.5057 15.5608 34.6083 15.5241 34.667C15.4801 34.733 15.4141 34.7843 15.3261 34.821C15.2821 34.8357 15.2455 34.843 15.2161 34.843C15.1941 34.843 15.1538 34.8357 15.0951 34.821C14.9925 34.777 14.9265 34.7073 14.8971 34.612C14.8751 34.5387 14.8568 34.304 14.8421 33.908L14.8311 33.622C14.8311 33.468 14.8275 33.3727 14.8201 33.336C14.8128 33.248 14.7908 33.193 14.7541 33.171C14.7028 33.1343 14.5378 33.1233 14.2591 33.138C14.2371 33.1453 14.1968 33.149 14.1381 33.149C13.8961 33.1637 13.7605 33.193 13.7311 33.237C13.6945 33.2883 13.6688 33.457 13.6541 33.743V33.897C13.6395 34.2857 13.6211 34.513 13.5991 34.579C13.5698 34.6743 13.4928 34.733 13.3681 34.755C13.3535 34.7623 13.3278 34.766 13.2911 34.766C13.2398 34.766 13.1775 34.7477 13.1041 34.711C12.9941 34.6523 12.9245 34.5937 12.8951 34.535C12.8658 34.4837 12.8511 34.2013 12.8511 33.688C12.8511 33.314 12.8548 33.006 12.8621 32.764C12.8695 31.6787 12.9025 31.07 12.9611 30.938C12.9831 30.872 13.0345 30.817 13.1151 30.773ZM8.46213 32.841C8.46213 32.6943 8.5318 32.588 8.67113 32.522C8.76647 32.478 8.86547 32.4523 8.96813 32.445C9.01947 32.4377 9.16247 32.434 9.39713 32.434L9.82613 32.423L10.8161 32.412L10.9151 32.258C10.9738 32.148 11.0141 32.049 11.0361 31.961V31.895C11.0361 31.829 11.0251 31.7923 11.0031 31.785C10.9738 31.7557 10.5815 31.741 9.82613 31.741H8.69313L8.59413 31.642C8.5208 31.576 8.48413 31.5063 8.48413 31.433C8.48413 31.3523 8.5208 31.2717 8.59413 31.191C8.66013 31.1103 8.7298 31.0663 8.80313 31.059C8.8398 31.0517 9.0818 31.048 9.52913 31.048L10.2551 31.037H10.6841C11.2928 31.037 11.6411 31.0553 11.7291 31.092C11.9271 31.1873 12.0261 31.345 12.0261 31.565C12.0261 31.7117 11.9895 31.884 11.9161 32.082C11.7768 32.4707 11.5641 32.874 11.2781 33.292C10.9775 33.7393 10.6731 34.106 10.3651 34.392C9.97647 34.7587 9.70513 34.997 9.55113 35.107C9.3898 35.2097 9.2468 35.261 9.12213 35.261C8.97547 35.261 8.8618 35.2207 8.78113 35.14C8.69313 35.0593 8.64913 34.9713 8.64913 34.876C8.64913 34.8247 8.68947 34.7477 8.77013 34.645C8.8508 34.5423 8.93513 34.4617 9.02313 34.403C9.29447 34.2197 9.58413 33.9813 9.89213 33.688C10.1635 33.4167 10.2845 33.248 10.2551 33.182C10.2405 33.1673 10.1561 33.16 10.0021 33.16L9.52913 33.171L9.05613 33.182C8.88747 33.182 8.7738 33.1747 8.71513 33.16C8.63447 33.138 8.56847 33.0903 8.51713 33.017C8.48047 32.9583 8.46213 32.8997 8.46213 32.841ZM10.1561 37.549C10.1561 37.1237 10.1671 36.856 10.1891 36.746C10.2111 36.6433 10.2735 36.5517 10.3761 36.471C10.4348 36.4343 10.5081 36.4123 10.5961 36.405C10.6548 36.3977 10.8858 36.394 11.2891 36.394C11.8391 36.394 12.4478 36.405 13.1151 36.427H13.1591C13.3351 36.4343 13.5515 36.438 13.8081 36.438C14.0355 36.438 14.1675 36.4307 14.2041 36.416C14.3068 36.394 14.3581 36.2987 14.3581 36.13V35.855L13.9621 35.822L12.7631 35.789L11.1681 35.767C10.9115 35.7597 10.6878 35.745 10.4971 35.723C10.3871 35.7083 10.3175 35.6863 10.2881 35.657C10.2295 35.613 10.2001 35.547 10.2001 35.459C10.2001 35.3417 10.2331 35.25 10.2991 35.184C10.3578 35.1327 10.4128 35.1033 10.4641 35.096C10.5155 35.0887 10.6401 35.0777 10.8381 35.063C11.2488 35.0483 11.7438 35.041 12.3231 35.041H13.1371C14.2371 35.0483 14.8201 35.0667 14.8861 35.096C14.9961 35.1473 15.0805 35.2463 15.1391 35.393C15.1758 35.5323 15.2015 35.7743 15.2161 36.119C15.2161 36.4343 15.1941 36.647 15.1501 36.757C15.1061 36.8817 15.0145 36.9807 14.8751 37.054C14.7578 37.1273 14.5268 37.1677 14.1821 37.175C13.8448 37.1897 13.4525 37.197 13.0051 37.197H12.3781L11.6081 37.186C11.2561 37.186 11.0618 37.197 11.0251 37.219C10.9885 37.241 10.9628 37.2703 10.9481 37.307C10.9335 37.351 10.9261 37.4317 10.9261 37.549C10.9261 37.747 10.9408 37.8497 10.9701 37.857C11.0141 37.8717 11.6925 37.879 13.0051 37.879C14.3471 37.879 15.0438 37.89 15.0951 37.912C15.2198 37.956 15.2821 38.0623 15.2821 38.231C15.2821 38.385 15.2198 38.5023 15.0951 38.583C15.0145 38.627 14.8788 38.6527 14.6881 38.66C14.6001 38.6673 14.3031 38.671 13.7971 38.671L12.8951 38.682H11.8611C11.1058 38.682 10.6841 38.6783 10.5961 38.671C10.5155 38.6637 10.4421 38.649 10.3761 38.627C10.3395 38.5977 10.2991 38.5537 10.2551 38.495C10.2185 38.429 10.1928 38.352 10.1781 38.264C10.1635 38.1467 10.1561 37.9083 10.1561 37.549ZM23.0417 30.883C23.0637 30.883 23.104 30.8903 23.1627 30.905C23.2214 30.9197 23.2727 30.949 23.3167 30.993L23.3277 31.015C23.3644 31.0443 23.3864 31.1653 23.3937 31.378L23.3827 33.611V34.117L23.3717 36.086L23.2507 36.207C23.1994 36.2583 23.1554 36.2913 23.1187 36.306C23.0747 36.3207 23.027 36.3243 22.9757 36.317C22.7484 36.273 22.609 36.1263 22.5577 35.877C22.543 35.789 22.5357 35.5543 22.5357 35.173L22.5577 33.435C22.5944 31.961 22.631 31.1653 22.6677 31.048C22.7044 30.9747 22.7594 30.9343 22.8327 30.927L22.9207 30.905L22.9757 30.894L23.0417 30.883ZM16.9697 34.194C16.9697 33.644 16.9844 33.314 17.0137 33.204C17.0357 33.094 17.1164 33.0133 17.2557 32.962C17.3217 32.9327 17.593 32.918 18.0697 32.918H18.5647L19.2797 32.929L19.6867 32.918C19.848 32.9107 19.9397 32.874 19.9617 32.808C19.9764 32.742 19.9947 32.6027 20.0167 32.39V32.236C20.0167 32.0893 20.0057 32.0123 19.9837 32.005C19.969 31.9903 19.8224 31.983 19.5437 31.983C19.1844 31.983 18.8727 31.9867 18.6087 31.994L17.2777 32.016L17.1457 31.895C17.065 31.8143 17.0247 31.73 17.0247 31.642C17.0247 31.5907 17.0357 31.543 17.0577 31.499C17.1017 31.411 17.2044 31.3523 17.3657 31.323C17.549 31.2937 17.9487 31.2753 18.5647 31.268C18.7847 31.268 18.946 31.2643 19.0487 31.257C19.2687 31.257 19.485 31.257 19.6977 31.257C19.9177 31.2497 20.1047 31.2497 20.2587 31.257C20.4934 31.2643 20.6474 31.2973 20.7207 31.356C20.794 31.4 20.8527 31.4587 20.8967 31.532C20.9187 31.598 20.9297 31.7007 20.9297 31.84C20.9297 32.016 20.915 32.247 20.8857 32.533C20.849 32.8923 20.8197 33.105 20.7977 33.171C20.7537 33.3543 20.6217 33.4717 20.4017 33.523C20.3284 33.545 19.8994 33.567 19.1147 33.589L18.9167 33.6C18.3594 33.6073 18.0184 33.633 17.8937 33.677C17.7984 33.721 17.7507 33.864 17.7507 34.106V34.194C17.7507 34.3993 17.7544 34.5203 17.7617 34.557C17.7764 34.623 17.802 34.6707 17.8387 34.7C17.868 34.7293 17.9084 34.7513 17.9597 34.766C17.9964 34.7733 18.0734 34.7733 18.1907 34.766C18.4107 34.7367 18.858 34.7183 19.5327 34.711C19.7234 34.7037 19.9507 34.7 20.2147 34.7C20.42 34.7 20.5447 34.7037 20.5887 34.711C20.7427 34.7257 20.8674 34.7807 20.9627 34.876C21.0434 34.9567 21.0727 35.0447 21.0507 35.14C21.014 35.2573 20.9444 35.3417 20.8417 35.393C20.7904 35.4223 20.2294 35.4407 19.1587 35.448C18.7994 35.4553 18.374 35.459 17.8827 35.459C17.5527 35.459 17.362 35.4553 17.3107 35.448C17.2007 35.4407 17.1164 35.393 17.0577 35.305C17.021 35.2537 16.9954 35.173 16.9807 35.063C16.9734 34.997 16.9697 34.7073 16.9697 34.194ZM17.9817 36.988C17.9817 36.7387 17.9927 36.559 18.0147 36.449C18.0367 36.3023 18.088 36.1997 18.1687 36.141C18.2127 36.1043 18.275 36.086 18.3557 36.086C18.429 36.086 18.4987 36.1043 18.5647 36.141C18.6674 36.1923 18.7334 36.2693 18.7627 36.372C18.7847 36.4673 18.7957 36.6873 18.7957 37.032C18.7957 37.4207 18.814 37.6407 18.8507 37.692C18.8874 37.7287 19.617 37.747 21.0397 37.747C22.4624 37.747 23.1994 37.7617 23.2507 37.791C23.2947 37.813 23.3387 37.8643 23.3827 37.945C23.4267 38.033 23.4487 38.1063 23.4487 38.165C23.4487 38.2237 23.412 38.2933 23.3387 38.374L23.2177 38.506L20.8527 38.495C19.276 38.4803 18.4437 38.462 18.3557 38.44C18.187 38.3813 18.088 38.2897 18.0587 38.165C18.0074 38.0183 17.9817 37.626 17.9817 36.988ZM31.0178 31.07C31.0985 30.9967 31.1828 30.96 31.2708 30.96C31.3515 30.96 31.4321 30.9893 31.5128 31.048L31.6118 31.125V34.359C31.6118 36.4857 31.6008 37.6663 31.5788 37.901C31.5568 38.099 31.5165 38.2383 31.4578 38.319C31.4065 38.385 31.3038 38.418 31.1498 38.418C31.0618 38.418 30.9958 38.4107 30.9518 38.396C30.9298 38.3887 30.8858 38.352 30.8198 38.286L30.7098 38.154L30.7318 36.614C30.7391 36.306 30.7428 35.943 30.7428 35.525C30.7428 35.195 30.7355 35.0227 30.7208 35.008C30.7135 34.9787 30.6438 34.9567 30.5118 34.942C30.4531 34.9347 30.2735 34.931 29.9728 34.931L29.4338 34.92C28.9131 34.92 28.5575 34.9127 28.3668 34.898C28.2275 34.8833 28.1285 34.8613 28.0698 34.832C28.0038 34.788 27.9671 34.7073 27.9598 34.59V34.535C27.9598 34.4397 27.9818 34.37 28.0258 34.326C28.1285 34.2307 28.6968 34.183 29.7308 34.183C30.3175 34.183 30.6365 34.1647 30.6878 34.128C30.7245 34.106 30.7465 34.0143 30.7538 33.853C30.7611 33.787 30.7648 33.611 30.7648 33.325L30.7758 32.797C30.7978 31.939 30.8198 31.455 30.8418 31.345C30.8638 31.235 30.9225 31.1433 31.0178 31.07ZM24.8798 34.601C24.8798 33.4717 24.8835 32.8373 24.8908 32.698C24.9055 32.4853 24.9275 32.3533 24.9568 32.302C25.0155 32.2213 25.1218 32.1627 25.2758 32.126C25.4225 32.0893 25.7305 32.0673 26.1998 32.06L27.8168 32.027H28.5538L28.6748 32.126C28.7701 32.1993 28.8178 32.28 28.8178 32.368C28.8178 32.5367 28.7225 32.665 28.5318 32.753C28.4805 32.7823 28.0661 32.797 27.2888 32.797C26.2768 32.797 25.7415 32.8263 25.6828 32.885C25.6755 32.8923 25.6718 33.1747 25.6718 33.732V34.546C25.6718 35.624 25.6791 36.1923 25.6938 36.251C25.7011 36.2657 25.7781 36.2803 25.9248 36.295C26.0201 36.3023 26.1301 36.306 26.2548 36.306C26.3868 36.2987 26.5188 36.295 26.6508 36.295C26.7168 36.2877 26.8231 36.284 26.9698 36.284C27.7031 36.2767 28.2201 36.2583 28.5208 36.229C28.6675 36.2143 28.7628 36.2143 28.8068 36.229C28.8508 36.2437 28.8948 36.273 28.9388 36.317C29.0121 36.3903 29.0488 36.4637 29.0488 36.537C29.0488 36.647 28.9938 36.746 28.8838 36.834C28.8105 36.9 28.7298 36.9367 28.6418 36.944C28.3485 36.9733 28.0698 36.999 27.8058 37.021C27.4318 37.043 27.0431 37.054 26.6398 37.054H26.2218C25.6718 37.054 25.3235 37.0357 25.1768 36.999C25.1695 36.9917 25.1548 36.988 25.1328 36.988C25.0155 36.9587 24.9458 36.8597 24.9238 36.691C24.9091 36.559 24.8945 36.0053 24.8798 35.03V34.601Z" fill="#979797"/>
</svg>
