<svg width="52" height="52" viewBox="0 0 52 52" fill="none" xmlns="http://www.w3.org/2000/svg">
<g filter="url(#filter0_d_388_660)">
<rect x="4" width="44" height="44" rx="22" fill="#FF6F61"/>
<path d="M31.4501 13.2H19.5701C19.3075 13.2 19.0557 13.3043 18.87 13.49C18.6844 13.6756 18.5801 13.9274 18.5801 14.19V30.03C18.5801 30.2926 18.6844 30.5444 18.87 30.73C19.0557 30.9157 19.3075 31.02 19.5701 31.02H20.5601V32.01C20.5601 32.2726 20.6644 32.5244 20.85 32.71C21.0357 32.8957 21.2875 33 21.5501 33C21.8126 33 22.0645 32.8957 22.2501 32.71C22.4358 32.5244 22.5401 32.2726 22.5401 32.01V31.02H31.4501C32.2378 31.02 32.9932 30.7071 33.5502 30.1501C34.1072 29.5931 34.4201 28.8377 34.4201 28.05V16.17C34.4201 15.3823 34.1072 14.6269 33.5502 14.0699C32.9932 13.5129 32.2378 13.2 31.4501 13.2ZM28.4801 29.04H20.5601V15.18H28.4801V29.04ZM32.4401 28.05C32.4401 28.3126 32.3358 28.5644 32.1501 28.75C31.9645 28.9357 31.7126 29.04 31.4501 29.04H30.4601V15.18H31.4501C31.7126 15.18 31.9645 15.2843 32.1501 15.47C32.3358 15.6556 32.4401 15.9074 32.4401 16.17V28.05Z" fill="white"/>
</g>
<defs>
<filter id="filter0_d_388_660" x="0" y="0" width="52" height="52" filterUnits="userSpaceOnUse" color-interpolation-filters="sRGB">
<feFlood flood-opacity="0" result="BackgroundImageFix"/>
<feColorMatrix in="SourceAlpha" type="matrix" values="0 0 0 0 0 0 0 0 0 0 0 0 0 0 0 0 0 0 127 0" result="hardAlpha"/>
<feOffset dy="4"/>
<feGaussianBlur stdDeviation="2"/>
<feComposite in2="hardAlpha" operator="out"/>
<feColorMatrix type="matrix" values="0 0 0 0 0 0 0 0 0 0 0 0 0 0 0 0 0 0 0.25 0"/>
<feBlend mode="normal" in2="BackgroundImageFix" result="effect1_dropShadow_388_660"/>
<feBlend mode="normal" in="SourceGraphic" in2="effect1_dropShadow_388_660" result="shape"/>
</filter>
</defs>
</svg>
