<svg width="28" height="29" viewBox="0 0 28 29" fill="none" xmlns="http://www.w3.org/2000/svg">
<path d="M25.6664 8.94685C25.6672 8.79331 25.6378 8.6411 25.5798 8.49896C25.5217 8.35681 25.4362 8.22753 25.328 8.11852L20.3814 3.17185C20.2723 3.06372 20.1431 2.97817 20.0009 2.92012C19.8588 2.86206 19.7066 2.83263 19.553 2.83352C19.3995 2.83263 19.2473 2.86206 19.1051 2.92012C18.963 2.97817 18.8337 3.06372 18.7247 3.17185L15.423 6.47352L2.67136 19.2252C2.56323 19.3342 2.47769 19.4635 2.41963 19.6056C2.36157 19.7478 2.33214 19.9 2.33303 20.0535V25.0002C2.33303 25.3096 2.45594 25.6063 2.67474 25.8251C2.89353 26.0439 3.19027 26.1668 3.49969 26.1668H8.44636C8.60961 26.1757 8.7729 26.1502 8.92565 26.0919C9.0784 26.0336 9.21719 25.9439 9.33303 25.8285L22.0147 13.0768L25.328 9.83352C25.4345 9.72044 25.5213 9.5903 25.5847 9.44852C25.5959 9.35552 25.5959 9.26151 25.5847 9.16852C25.5902 9.11421 25.5902 9.05949 25.5847 9.00518L25.6664 8.94685ZM7.96803 23.8335H4.66636V20.5318L16.2514 8.94685L19.553 12.2485L7.96803 23.8335ZM21.198 10.6035L17.8964 7.30185L19.553 5.65685L22.843 8.94685L21.198 10.6035Z" fill="#D3D3D3"/>
</svg>
