<svg width="38" height="19" viewBox="0 0 38 19" fill="none" xmlns="http://www.w3.org/2000/svg">
<path d="M9.5 19C6.86153 19 4.61827 18.0772 2.7702 16.2317C0.9234 14.3862 0 12.1454 0 9.5095C0 6.8723 0.9234 4.6284 2.7702 2.7778C4.61827 0.925933 6.86153 0 9.5 0H28.5C31.1385 0 33.3817 0.922766 35.2298 2.7683C37.0766 4.61383 38 6.85457 38 9.4905C38 12.1277 37.0766 14.3716 35.2298 16.2222C33.3817 18.0741 31.1385 19 28.5 19H9.5ZM9.5 17.1H28.5C30.59 17.1 32.3792 16.3558 33.8675 14.8675C35.3558 13.3792 36.1 11.59 36.1 9.5C36.1 7.41 35.3558 5.62083 33.8675 4.1325C32.3792 2.64417 30.59 1.9 28.5 1.9H9.5C7.41 1.9 5.62083 2.64417 4.1325 4.1325C2.64417 5.62083 1.9 7.41 1.9 9.5C1.9 11.59 2.64417 13.3792 4.1325 14.8675C5.62083 16.3558 7.41 17.1 9.5 17.1ZM28.4962 14.25C29.8135 14.25 30.9352 13.7889 31.8611 12.8668C32.787 11.9434 33.25 10.8224 33.25 9.5038C33.25 8.18647 32.7889 7.06483 31.8668 6.1389C30.9434 5.21297 29.8224 4.75 28.5038 4.75C27.1865 4.75 26.0648 5.2117 25.1389 6.1351C24.213 7.05723 23.75 8.1776 23.75 9.4962C23.75 10.8148 24.2117 11.9364 25.1351 12.8611C26.0572 13.787 27.1776 14.25 28.4962 14.25Z" fill="#FF6F61"/>
</svg>
