<svg width="20" height="20" viewBox="0 0 20 20" fill="none" xmlns="http://www.w3.org/2000/svg">
<path d="M6.61656 2.04494C6.38222 2.27935 6.25057 2.59723 6.25057 2.92869C6.25057 3.26014 6.38222 3.57803 6.61656 3.81244L12.8041 9.99994L6.61656 16.1874C6.38886 16.4232 6.26287 16.7389 6.26571 17.0667C6.26856 17.3944 6.40002 17.708 6.63178 17.9397C6.86354 18.1715 7.17706 18.3029 7.5048 18.3058C7.83255 18.3086 8.1483 18.1826 8.38406 17.9549L15.4553 10.8837C15.6896 10.6493 15.8213 10.3314 15.8213 9.99994C15.8213 9.66848 15.6896 9.3506 15.4553 9.11619L8.38406 2.04494C8.14965 1.8106 7.83176 1.67896 7.50031 1.67896C7.16885 1.67896 6.85097 1.8106 6.61656 2.04494Z" fill="black" fill-opacity="0.2"/>
</svg>
