<svg width="23" height="23" viewBox="0 0 23 23" fill="none" xmlns="http://www.w3.org/2000/svg">
<path d="M7.39866 15.7704L9.08628 15.2836L19.2475 5.0007C19.3276 4.91857 19.3723 4.8082 19.3717 4.69344C19.3712 4.57869 19.3255 4.46874 19.2446 4.38737L18.6361 3.77212C18.5968 3.73171 18.5498 3.69954 18.4979 3.67749C18.446 3.65544 18.3902 3.64394 18.3338 3.64367C18.2775 3.6434 18.2216 3.65437 18.1695 3.67593C18.1174 3.69749 18.0701 3.72921 18.0304 3.76924L7.89603 14.0253L7.39866 15.7704ZM19.8407 2.55312L20.4492 3.16933C21.2887 4.01937 21.2964 5.39074 20.4646 6.23216L9.99383 16.8294L6.38666 17.8682C6.16643 17.9299 5.93074 17.9016 5.73131 17.7897C5.53189 17.6778 5.38501 17.4913 5.32291 17.2712C5.2767 17.113 5.27604 16.9449 5.32099 16.7863L6.37037 13.1063L16.8133 2.53683C17.0119 2.33688 17.2483 2.17847 17.5087 2.07084C17.7692 1.96321 18.0484 1.90851 18.3302 1.90994C18.612 1.91137 18.8907 1.96889 19.15 2.07915C19.4094 2.18941 19.6442 2.35117 19.8407 2.55312ZM8.80166 3.65808C9.27699 3.65808 9.66224 4.04812 9.66224 4.5292C9.663 4.64292 9.64133 4.75568 9.59848 4.86103C9.55563 4.96637 9.49244 5.06224 9.41251 5.14314C9.33259 5.22404 9.2375 5.2884 9.13268 5.33253C9.02787 5.37666 8.91538 5.3997 8.80166 5.40033H5.35933C4.40866 5.40033 3.63816 6.18041 3.63816 7.14162V17.5932C3.63816 18.5554 4.40866 19.3355 5.35933 19.3355H15.6863C16.637 19.3355 17.4085 18.5554 17.4085 17.5932V14.1097C17.4085 13.6286 17.7937 13.2385 18.269 13.2385C18.7444 13.2385 19.1296 13.6286 19.1296 14.1106V17.5932C19.1296 19.5175 17.5877 21.0777 15.6863 21.0777H5.35933C3.45799 21.0777 1.91699 19.5175 1.91699 17.5932V7.14162C1.91699 5.21824 3.45799 3.65808 5.35933 3.65808H8.80166Z" fill="#3C4045"/>
</svg>
