<svg width="20" height="20" viewBox="0 0 20 20" fill="none" xmlns="http://www.w3.org/2000/svg">
<path d="M6.97541 13.1649L8.38421 12.7585L16.8666 4.1745C16.9335 4.10593 16.9708 4.0138 16.9703 3.918C16.9699 3.82221 16.9318 3.73043 16.8642 3.6625L16.3562 3.1489C16.3234 3.11517 16.2842 3.08831 16.2409 3.0699C16.1975 3.05149 16.151 3.0419 16.1039 3.04167C16.0569 3.04145 16.0102 3.0506 15.9667 3.0686C15.9232 3.0866 15.8838 3.11308 15.8506 3.1465L7.39061 11.7081L6.97541 13.1649ZM17.3618 2.1313L17.8698 2.6457C18.5706 3.3553 18.577 4.5001 17.8826 5.2025L9.14181 14.0489L6.13061 14.9161C5.94677 14.9676 5.75002 14.944 5.58354 14.8505C5.41706 14.7571 5.29445 14.6014 5.24261 14.4177C5.20404 14.2856 5.20349 14.1453 5.24101 14.0129L6.11701 10.9409L14.8346 2.1177C15.0004 1.95078 15.1977 1.81855 15.4151 1.7287C15.6325 1.63885 15.8657 1.59319 16.1009 1.59438C16.3361 1.59557 16.5688 1.64359 16.7853 1.73564C17.0018 1.82768 17.1977 1.96271 17.3618 2.1313ZM8.14661 3.0537C8.54341 3.0537 8.86501 3.3793 8.86501 3.7809C8.86565 3.87583 8.84756 3.96996 8.81179 4.0579C8.77602 4.14584 8.72326 4.22587 8.65654 4.2934C8.58982 4.36094 8.51045 4.41466 8.42295 4.4515C8.33545 4.48834 8.24155 4.50757 8.14661 4.5081H5.27301C4.47941 4.5081 3.83621 5.1593 3.83621 5.9617V14.6865C3.83621 15.4897 4.47941 16.1409 5.27301 16.1409H13.8938C14.6874 16.1409 15.3314 15.4897 15.3314 14.6865V11.7785C15.3314 11.3769 15.653 11.0513 16.0498 11.0513C16.4466 11.0513 16.7682 11.3769 16.7682 11.7793V14.6865C16.7682 16.2929 15.481 17.5953 13.8938 17.5953H5.27301C3.68581 17.5953 2.39941 16.2929 2.39941 14.6865V5.9617C2.39941 4.3561 3.68581 3.0537 5.27301 3.0537H8.14661Z" fill="#3C4045"/>
</svg>
