<svg width="41" height="40" viewBox="0 0 41 40" fill="none" xmlns="http://www.w3.org/2000/svg">
<path d="M27.9318 14.98C27.9718 14.66 28.0018 14.34 28.0018 14C28.0018 13.66 27.9718 13.34 27.9318 13.02L30.0417 11.37C30.2317 11.22 30.2817 10.95 30.1617 10.73L28.1618 7.27004C28.1028 7.16686 28.009 7.08806 27.8973 7.04774C27.7855 7.00743 27.663 7.00824 27.5518 7.05004L25.0618 8.05004C24.5418 7.65004 23.9818 7.32004 23.3718 7.07004L22.9918 4.42005C22.9752 4.30239 22.9163 4.19481 22.8261 4.11748C22.7359 4.04016 22.6206 3.9984 22.5018 4.00005H18.5018C18.2518 4.00005 18.0418 4.18005 18.0118 4.42005L17.6318 7.07004C17.0218 7.32004 16.4618 7.66004 15.9418 8.05004L13.4518 7.05004C13.3938 7.03037 13.333 7.02024 13.2718 7.02004C13.1018 7.02004 12.9318 7.11004 12.8418 7.27004L10.8418 10.73C10.7118 10.95 10.7718 11.22 10.9618 11.37L13.0718 13.02C13.0318 13.34 13.0018 13.67 13.0018 14C13.0018 14.33 13.0318 14.66 13.0718 14.98L10.9618 16.63C10.7718 16.78 10.7218 17.05 10.8418 17.27L12.8418 20.73C12.9007 20.8332 12.9945 20.912 13.1063 20.9523C13.2181 20.9926 13.3406 20.9918 13.4518 20.95L15.9418 19.95C16.4618 20.35 17.0218 20.68 17.6318 20.93L18.0118 23.58C18.0418 23.82 18.2518 24 18.5018 24H22.5018C22.7518 24 22.9618 23.82 22.9918 23.58L23.3718 20.93C23.9818 20.68 24.5418 20.34 25.0618 19.95L27.5518 20.95C27.6118 20.97 27.6718 20.98 27.7318 20.98C27.9018 20.98 28.0718 20.89 28.1618 20.73L30.1617 17.27C30.2817 17.05 30.2317 16.78 30.0417 16.63L27.9318 14.98ZM25.9518 13.27C25.9918 13.58 26.0018 13.79 26.0018 14C26.0018 14.21 25.9818 14.43 25.9518 14.73L25.8118 15.86L26.7018 16.56L27.7818 17.4L27.0818 18.61L25.8118 18.1L24.7718 17.68L23.8718 18.36C23.4418 18.68 23.0318 18.92 22.6218 19.09L21.5618 19.52L21.4018 20.65L21.2018 22H19.8018L19.6118 20.65L19.4518 19.52L18.3918 19.09C17.9618 18.91 17.5618 18.68 17.1618 18.38L16.2518 17.68L15.1918 18.11L13.9218 18.62L13.2218 17.41L14.3018 16.57L15.1918 15.87L15.0518 14.74C15.0218 14.43 15.0018 14.2 15.0018 14C15.0018 13.8 15.0218 13.57 15.0518 13.27L15.1918 12.14L14.3018 11.44L13.2218 10.6L13.9218 9.39003L15.1918 9.90003L16.2318 10.32L17.1318 9.64003C17.5618 9.32003 17.9718 9.08003 18.3818 8.91003L19.4418 8.48004L19.6018 7.35004L19.8018 6.00004H21.1918L21.3818 7.35004L21.5418 8.48004L22.6018 8.91003C23.0318 9.09003 23.4318 9.32003 23.8318 9.62003L24.7418 10.32L25.8018 9.89003L27.0718 9.38003L27.7718 10.59L26.7018 11.44L25.8118 12.14L25.9518 13.27ZM20.5018 10C18.2918 10 16.5018 11.79 16.5018 14C16.5018 16.21 18.2918 18 20.5018 18C22.7118 18 24.5018 16.21 24.5018 14C24.5018 11.79 22.7118 10 20.5018 10ZM20.5018 16C19.4018 16 18.5018 15.1 18.5018 14C18.5018 12.9 19.4018 12 20.5018 12C21.6018 12 22.5018 12.9 22.5018 14C22.5018 15.1 21.6018 16 20.5018 16Z" fill="#979797"/>
<path d="M18.9533 30.817C19.0266 30.7803 19.1 30.762 19.1733 30.762C19.21 30.762 19.2796 30.7767 19.3823 30.806C19.4776 30.8427 19.529 30.9307 19.5363 31.07L19.5473 31.367L19.5253 32.17C19.5033 32.61 19.4923 32.984 19.4923 33.292L19.5033 33.765C19.5106 33.831 19.5143 33.9263 19.5143 34.051C19.5143 34.4177 19.463 34.6633 19.3603 34.788C19.2943 34.854 19.2246 34.887 19.1513 34.887C18.99 34.887 18.8726 34.7807 18.7993 34.568C18.7553 34.458 18.7296 34.183 18.7223 33.743C18.715 33.2663 18.693 33.0097 18.6563 32.973C18.6343 32.9363 18.341 32.918 17.7763 32.918C17.3436 32.918 17.098 32.9143 17.0393 32.907C16.944 32.8923 16.878 32.8703 16.8413 32.841C16.7826 32.7823 16.7533 32.698 16.7533 32.588C16.7606 32.4193 16.8266 32.3057 16.9513 32.247C17.0833 32.1957 17.395 32.1663 17.8863 32.159C18.363 32.1443 18.6196 32.1187 18.6563 32.082C18.7003 32.0307 18.726 31.8657 18.7333 31.587C18.7553 31.3083 18.781 31.1213 18.8103 31.026C18.847 30.916 18.8946 30.8463 18.9533 30.817ZM12.7053 34.282C12.7126 34.2307 12.7493 34.161 12.8153 34.073C12.8886 33.985 12.9986 33.8677 13.1453 33.721C13.7686 33.0977 14.1463 32.665 14.2783 32.423C14.3443 32.2763 14.381 32.181 14.3883 32.137C14.4103 31.983 14.425 31.818 14.4323 31.642C14.447 31.378 14.458 31.213 14.4653 31.147C14.48 31.0883 14.513 31.0223 14.5643 30.949C14.623 30.8757 14.667 30.8353 14.6963 30.828C14.7403 30.8133 14.8026 30.806 14.8833 30.806C15.0593 30.806 15.1693 30.8537 15.2133 30.949C15.2353 31.015 15.2463 31.1433 15.2463 31.334C15.2463 31.4807 15.2426 31.6017 15.2353 31.697L15.2133 32.258L15.4553 32.5C15.6826 32.72 15.932 32.9877 16.2033 33.303C16.526 33.6843 16.7276 33.93 16.8083 34.04C16.8816 34.1427 16.9183 34.227 16.9183 34.293C16.9183 34.3663 16.8743 34.4433 16.7863 34.524C16.691 34.5973 16.5883 34.634 16.4783 34.634C16.4196 34.634 16.3426 34.5937 16.2473 34.513C16.1153 34.3957 15.9063 34.1903 15.6203 33.897C15.151 33.413 14.8943 33.171 14.8503 33.171C14.799 33.171 14.722 33.237 14.6193 33.369L14.2233 33.831L13.7503 34.348C13.4643 34.678 13.2333 34.843 13.0573 34.843C12.918 34.8283 12.819 34.7733 12.7603 34.678C12.7163 34.612 12.6943 34.5277 12.6943 34.425C12.6943 34.3663 12.698 34.3187 12.7053 34.282ZM14.2783 37.406C14.2783 37.0393 14.282 36.8303 14.2893 36.779C14.304 36.6983 14.3333 36.636 14.3773 36.592C14.4653 36.4893 14.6083 36.427 14.8063 36.405C14.8943 36.3977 15.2206 36.394 15.7853 36.394H16.5333L17.5673 36.405L18.0733 36.394C18.2273 36.3867 18.3226 36.3647 18.3593 36.328C18.396 36.2767 18.4216 36.1997 18.4363 36.097C18.4363 35.9943 18.418 35.932 18.3813 35.91C18.3446 35.888 17.7543 35.8697 16.6103 35.855C15.4956 35.855 14.854 35.844 14.6853 35.822C14.546 35.8 14.4506 35.7633 14.3993 35.712C14.3406 35.6533 14.3113 35.5727 14.3113 35.47C14.3113 35.2867 14.392 35.1803 14.5533 35.151C14.6046 35.1437 15.327 35.14 16.7203 35.14H17.6333C18.418 35.14 18.8433 35.151 18.9093 35.173C19.012 35.2023 19.089 35.2573 19.1403 35.338C19.1843 35.4113 19.21 35.4773 19.2173 35.536C19.2246 35.5947 19.2283 35.7927 19.2283 36.13V36.284C19.2283 36.724 19.1476 36.9807 18.9863 37.054C18.8323 37.1273 18.253 37.164 17.2483 37.164H16.9183C15.767 37.164 15.162 37.1823 15.1033 37.219C15.0593 37.241 15.0373 37.3143 15.0373 37.439C15.0373 37.637 15.052 37.7507 15.0813 37.78C15.1033 37.802 15.3416 37.813 15.7963 37.813H16.3133C16.944 37.813 17.6186 37.8203 18.3373 37.835C18.7406 37.8423 18.9863 37.8533 19.0743 37.868C19.155 37.8753 19.221 37.9047 19.2723 37.956C19.331 38.0147 19.364 38.0917 19.3713 38.187C19.3713 38.275 19.3493 38.352 19.3053 38.418C19.2246 38.5207 19.078 38.583 18.8653 38.605C18.5573 38.6197 17.8606 38.627 16.7753 38.627H14.6083L14.4653 38.484C14.3773 38.4107 14.3223 38.3227 14.3003 38.22C14.2856 38.088 14.2783 37.8167 14.2783 37.406ZM26.7664 30.872C26.8177 30.8207 26.8984 30.795 27.0084 30.795C27.1844 30.795 27.2871 30.8317 27.3164 30.905C27.3531 30.993 27.3714 31.7117 27.3714 33.061C27.3714 34.4103 27.3531 35.129 27.3164 35.217C27.2651 35.3123 27.1771 35.36 27.0524 35.36C26.8837 35.36 26.7591 35.2977 26.6784 35.173C26.6271 35.0923 26.5904 34.7843 26.5684 34.249C26.5611 33.7137 26.5427 33.4387 26.5134 33.424C26.4914 33.402 26.2494 33.38 25.7874 33.358C25.4061 33.3507 25.1531 33.325 25.0284 33.281C24.9257 33.2443 24.8744 33.1637 24.8744 33.039C24.8744 32.8703 24.9551 32.7603 25.1164 32.709C25.2924 32.6503 25.5931 32.621 26.0184 32.621C26.3631 32.621 26.5464 32.599 26.5684 32.555C26.5831 32.4817 26.5904 32.3203 26.5904 32.071C26.5904 31.389 26.6491 30.9893 26.7664 30.872ZM20.8154 31.499C20.8154 31.3523 20.8851 31.246 21.0244 31.18C21.1124 31.1433 21.5231 31.1177 22.2564 31.103L23.7414 31.07C23.9614 31.0553 24.1044 31.048 24.1704 31.048C24.6177 31.048 24.8854 31.1213 24.9734 31.268C25.0101 31.3267 25.0284 31.3817 25.0284 31.433C25.0284 31.521 24.9844 31.6053 24.8964 31.686C24.8451 31.7227 24.7791 31.7483 24.6984 31.763C24.6251 31.7703 24.4014 31.7813 24.0274 31.796C23.5141 31.8107 23.2464 31.829 23.2244 31.851C23.1804 31.8803 23.1547 32.0123 23.1474 32.247L23.1364 32.522C23.1364 32.61 23.1437 32.6907 23.1584 32.764C23.1877 32.8667 23.3307 33.0463 23.5874 33.303C23.8734 33.589 24.2291 33.886 24.6544 34.194C24.8084 34.3113 24.9037 34.4323 24.9404 34.557C24.9477 34.579 24.9514 34.6047 24.9514 34.634C24.9514 34.7367 24.9037 34.8247 24.8084 34.898C24.7497 34.942 24.6911 34.9713 24.6324 34.986H24.6104C24.5664 34.986 24.4784 34.9493 24.3464 34.876C24.1777 34.7807 24.0274 34.6743 23.8954 34.557C23.6241 34.3517 23.3527 34.139 23.0814 33.919C22.8687 33.743 22.7294 33.6697 22.6634 33.699C22.6341 33.7063 22.4324 33.908 22.0584 34.304C21.7284 34.6707 21.4937 34.8907 21.3544 34.964C21.2811 35.0007 21.2187 35.019 21.1674 35.019C21.1014 35.019 21.0281 34.9897 20.9474 34.931C20.8814 34.8723 20.8484 34.777 20.8484 34.645C20.8484 34.513 20.8667 34.4177 20.9034 34.359C20.9327 34.315 21.0391 34.2013 21.2224 34.018L21.5414 33.677C21.8934 33.2957 22.1207 33.017 22.2234 32.841C22.3334 32.643 22.3884 32.4083 22.3884 32.137C22.3884 32.005 22.3847 31.9317 22.3774 31.917C22.3627 31.8877 22.3261 31.8693 22.2674 31.862C22.1354 31.8473 21.9227 31.84 21.6294 31.84C21.3287 31.84 21.1234 31.8217 21.0134 31.785C20.8814 31.741 20.8154 31.6457 20.8154 31.499ZM21.9814 37.23C21.9961 36.9293 22.0841 36.647 22.2454 36.383C22.4067 36.1337 22.6341 35.9357 22.9274 35.789C23.1621 35.6717 23.3197 35.602 23.4004 35.58C23.5104 35.5433 23.6681 35.5213 23.8734 35.514C24.1594 35.4847 24.4454 35.47 24.7314 35.47C25.0174 35.47 25.2484 35.4847 25.4244 35.514C25.5344 35.5287 25.7104 35.569 25.9524 35.635C26.1504 35.701 26.3117 35.7633 26.4364 35.822C26.6051 35.8953 26.7481 36.0163 26.8654 36.185C26.9974 36.361 27.0891 36.5407 27.1404 36.724C27.1697 36.834 27.1844 36.922 27.1844 36.988C27.1844 37.054 27.1697 37.142 27.1404 37.252C27.0671 37.5893 26.8801 37.8753 26.5794 38.11C26.2714 38.3373 25.8901 38.4877 25.4354 38.561C25.2667 38.5903 24.9404 38.605 24.4564 38.605H23.7084L23.2354 38.451C22.8761 38.3337 22.6194 38.22 22.4654 38.11C22.3187 38 22.1977 37.8423 22.1024 37.637C22.0217 37.461 21.9814 37.3253 21.9814 37.23ZM22.8394 37.142C22.8394 37.1933 22.8614 37.263 22.9054 37.351C22.9494 37.4463 22.9934 37.5087 23.0374 37.538C23.2647 37.7067 23.7964 37.791 24.6324 37.791C25.1604 37.791 25.5381 37.736 25.7654 37.626C25.9121 37.5453 26.0331 37.4463 26.1284 37.329C26.2164 37.2043 26.2604 37.0907 26.2604 36.988C26.2604 36.6653 25.9964 36.4233 25.4684 36.262C25.3584 36.2253 25.1164 36.196 24.7424 36.174L24.3354 36.163C24.1887 36.163 24.0714 36.1703 23.9834 36.185C23.6461 36.2363 23.3894 36.3463 23.2134 36.515C23.1181 36.5957 23.0301 36.702 22.9494 36.834C22.8761 36.9513 22.8394 37.054 22.8394 37.142Z" fill="#979797"/>
</svg>
