<svg width="41" height="40" viewBox="0 0 41 40" fill="none" xmlns="http://www.w3.org/2000/svg">
<path d="M15.7272 3.81481C15.7272 3.59871 15.6385 3.39146 15.4806 3.23865C15.3226 3.08585 15.1084 3 14.885 3C14.6617 3 14.4475 3.08585 14.2895 3.23865C14.1316 3.39146 14.0429 3.59871 14.0429 3.81481V5.53136C12.4259 5.6563 11.3658 5.96267 10.5865 6.71773C9.80612 7.4717 9.48945 8.49837 9.35919 10.0617H31.6401C31.5098 8.49728 31.1932 7.4717 30.4127 6.71773C29.6334 5.96267 28.5723 5.6563 26.9564 5.53027V3.81481C26.9564 3.59871 26.8677 3.39146 26.7097 3.23865C26.5518 3.08585 26.3376 3 26.1142 3C25.8908 3 25.6766 3.08585 25.5187 3.23865C25.3607 3.39146 25.272 3.59871 25.272 3.81481V5.45857C24.5253 5.44444 23.6876 5.44444 22.7455 5.44444H18.2538C17.3117 5.44444 16.474 5.44444 15.7272 5.45857V3.81481Z" fill="#3C4045"/>
<path fill-rule="evenodd" clip-rule="evenodd" d="M9.27051 14.1358C9.27051 13.2243 9.27051 12.4138 9.28511 11.6914H31.7142C31.7288 12.4138 31.7288 13.2243 31.7288 14.1358V16.3086C31.7288 20.4055 31.7288 22.4545 30.4128 23.7267C29.0978 25 26.98 25 22.7455 25H18.2538C14.0193 25 11.9015 25 10.5866 23.7267C9.27051 22.4545 9.27051 20.4055 9.27051 16.3086V14.1358ZM26.1142 16.3086C26.412 16.3086 26.6977 16.1942 26.9083 15.9904C27.1188 15.7867 27.2371 15.5104 27.2371 15.2222C27.2371 14.9341 27.1188 14.6578 26.9083 14.454C26.6977 14.2503 26.412 14.1358 26.1142 14.1358C25.8164 14.1358 25.5308 14.2503 25.3202 14.454C25.1096 14.6578 24.9913 14.9341 24.9913 15.2222C24.9913 15.5104 25.1096 15.7867 25.3202 15.9904C25.5308 16.1942 25.8164 16.3086 26.1142 16.3086ZM26.1142 20.6543C26.412 20.6543 26.6977 20.5399 26.9083 20.3361C27.1188 20.1324 27.2371 19.856 27.2371 19.5679C27.2371 19.2798 27.1188 19.0034 26.9083 18.7997C26.6977 18.5959 26.412 18.4815 26.1142 18.4815C25.8164 18.4815 25.5308 18.5959 25.3202 18.7997C25.1096 19.0034 24.9913 19.2798 24.9913 19.5679C24.9913 19.856 25.1096 20.1324 25.3202 20.3361C25.5308 20.5399 25.8164 20.6543 26.1142 20.6543ZM21.6226 15.2222C21.6226 15.5104 21.5043 15.7867 21.2937 15.9904C21.0831 16.1942 20.7975 16.3086 20.4996 16.3086C20.2018 16.3086 19.9162 16.1942 19.7056 15.9904C19.495 15.7867 19.3767 15.5104 19.3767 15.2222C19.3767 14.9341 19.495 14.6578 19.7056 14.454C19.9162 14.2503 20.2018 14.1358 20.4996 14.1358C20.7975 14.1358 21.0831 14.2503 21.2937 14.454C21.5043 14.6578 21.6226 14.9341 21.6226 15.2222ZM21.6226 19.5679C21.6226 19.856 21.5043 20.1324 21.2937 20.3361C21.0831 20.5399 20.7975 20.6543 20.4996 20.6543C20.2018 20.6543 19.9162 20.5399 19.7056 20.3361C19.495 20.1324 19.3767 19.856 19.3767 19.5679C19.3767 19.2798 19.495 19.0034 19.7056 18.7997C19.9162 18.5959 20.2018 18.4815 20.4996 18.4815C20.7975 18.4815 21.0831 18.5959 21.2937 18.7997C21.5043 19.0034 21.6226 19.2798 21.6226 19.5679ZM14.8851 16.3086C15.1829 16.3086 15.4685 16.1942 15.6791 15.9904C15.8897 15.7867 16.008 15.5104 16.008 15.2222C16.008 14.9341 15.8897 14.6578 15.6791 14.454C15.4685 14.2503 15.1829 14.1358 14.8851 14.1358C14.5872 14.1358 14.3016 14.2503 14.091 14.454C13.8805 14.6578 13.7621 14.9341 13.7621 15.2222C13.7621 15.5104 13.8805 15.7867 14.091 15.9904C14.3016 16.1942 14.5872 16.3086 14.8851 16.3086ZM14.8851 20.6543C15.1829 20.6543 15.4685 20.5399 15.6791 20.3361C15.8897 20.1324 16.008 19.856 16.008 19.5679C16.008 19.2798 15.8897 19.0034 15.6791 18.7997C15.4685 18.5959 15.1829 18.4815 14.8851 18.4815C14.5872 18.4815 14.3016 18.5959 14.091 18.7997C13.8805 19.0034 13.7621 19.2798 13.7621 19.5679C13.7621 19.856 13.8805 20.1324 14.091 20.3361C14.3016 20.5399 14.5872 20.6543 14.8851 20.6543Z" fill="#3C4045"/>
<path d="M13.1151 30.773C13.1811 30.7363 13.2508 30.718 13.3241 30.718C13.4048 30.718 13.4745 30.7437 13.5331 30.795C13.5845 30.8243 13.6175 30.8757 13.6321 30.949C13.6395 30.9857 13.6431 31.0957 13.6431 31.279L13.6541 31.598C13.6688 32.082 13.6871 32.335 13.7091 32.357C13.7311 32.379 13.8301 32.39 14.0061 32.39C14.4095 32.39 14.6551 32.3643 14.7431 32.313C14.7871 32.2837 14.8128 32.2397 14.8201 32.181C14.8275 32.1297 14.8385 31.983 14.8531 31.741C14.8751 31.3963 14.8971 31.1653 14.9191 31.048C14.9558 30.872 15.0438 30.762 15.1831 30.718C15.2271 30.7033 15.2638 30.696 15.2931 30.696C15.3885 30.696 15.4838 30.7437 15.5791 30.839L15.7001 30.971L15.6781 31.499C15.6488 31.9537 15.6305 32.5513 15.6231 33.292C15.6158 33.8493 15.6048 34.205 15.5901 34.359C15.5828 34.5057 15.5608 34.6083 15.5241 34.667C15.4801 34.733 15.4141 34.7843 15.3261 34.821C15.2821 34.8357 15.2455 34.843 15.2161 34.843C15.1941 34.843 15.1538 34.8357 15.0951 34.821C14.9925 34.777 14.9265 34.7073 14.8971 34.612C14.8751 34.5387 14.8568 34.304 14.8421 33.908L14.8311 33.622C14.8311 33.468 14.8275 33.3727 14.8201 33.336C14.8128 33.248 14.7908 33.193 14.7541 33.171C14.7028 33.1343 14.5378 33.1233 14.2591 33.138C14.2371 33.1453 14.1968 33.149 14.1381 33.149C13.8961 33.1637 13.7605 33.193 13.7311 33.237C13.6945 33.2883 13.6688 33.457 13.6541 33.743V33.897C13.6395 34.2857 13.6211 34.513 13.5991 34.579C13.5698 34.6743 13.4928 34.733 13.3681 34.755C13.3535 34.7623 13.3278 34.766 13.2911 34.766C13.2398 34.766 13.1775 34.7477 13.1041 34.711C12.9941 34.6523 12.9245 34.5937 12.8951 34.535C12.8658 34.4837 12.8511 34.2013 12.8511 33.688C12.8511 33.314 12.8548 33.006 12.8621 32.764C12.8695 31.6787 12.9025 31.07 12.9611 30.938C12.9831 30.872 13.0345 30.817 13.1151 30.773ZM8.46213 32.841C8.46213 32.6943 8.5318 32.588 8.67113 32.522C8.76647 32.478 8.86547 32.4523 8.96813 32.445C9.01947 32.4377 9.16247 32.434 9.39713 32.434L9.82613 32.423L10.8161 32.412L10.9151 32.258C10.9738 32.148 11.0141 32.049 11.0361 31.961V31.895C11.0361 31.829 11.0251 31.7923 11.0031 31.785C10.9738 31.7557 10.5815 31.741 9.82613 31.741H8.69313L8.59413 31.642C8.5208 31.576 8.48413 31.5063 8.48413 31.433C8.48413 31.3523 8.5208 31.2717 8.59413 31.191C8.66013 31.1103 8.7298 31.0663 8.80313 31.059C8.8398 31.0517 9.0818 31.048 9.52913 31.048L10.2551 31.037H10.6841C11.2928 31.037 11.6411 31.0553 11.7291 31.092C11.9271 31.1873 12.0261 31.345 12.0261 31.565C12.0261 31.7117 11.9895 31.884 11.9161 32.082C11.7768 32.4707 11.5641 32.874 11.2781 33.292C10.9775 33.7393 10.6731 34.106 10.3651 34.392C9.97647 34.7587 9.70513 34.997 9.55113 35.107C9.3898 35.2097 9.2468 35.261 9.12213 35.261C8.97547 35.261 8.8618 35.2207 8.78113 35.14C8.69313 35.0593 8.64913 34.9713 8.64913 34.876C8.64913 34.8247 8.68947 34.7477 8.77013 34.645C8.8508 34.5423 8.93513 34.4617 9.02313 34.403C9.29447 34.2197 9.58413 33.9813 9.89213 33.688C10.1635 33.4167 10.2845 33.248 10.2551 33.182C10.2405 33.1673 10.1561 33.16 10.0021 33.16L9.52913 33.171L9.05613 33.182C8.88747 33.182 8.7738 33.1747 8.71513 33.16C8.63447 33.138 8.56847 33.0903 8.51713 33.017C8.48047 32.9583 8.46213 32.8997 8.46213 32.841ZM10.1561 37.549C10.1561 37.1237 10.1671 36.856 10.1891 36.746C10.2111 36.6433 10.2735 36.5517 10.3761 36.471C10.4348 36.4343 10.5081 36.4123 10.5961 36.405C10.6548 36.3977 10.8858 36.394 11.2891 36.394C11.8391 36.394 12.4478 36.405 13.1151 36.427H13.1591C13.3351 36.4343 13.5515 36.438 13.8081 36.438C14.0355 36.438 14.1675 36.4307 14.2041 36.416C14.3068 36.394 14.3581 36.2987 14.3581 36.13V35.855L13.9621 35.822L12.7631 35.789L11.1681 35.767C10.9115 35.7597 10.6878 35.745 10.4971 35.723C10.3871 35.7083 10.3175 35.6863 10.2881 35.657C10.2295 35.613 10.2001 35.547 10.2001 35.459C10.2001 35.3417 10.2331 35.25 10.2991 35.184C10.3578 35.1327 10.4128 35.1033 10.4641 35.096C10.5155 35.0887 10.6401 35.0777 10.8381 35.063C11.2488 35.0483 11.7438 35.041 12.3231 35.041H13.1371C14.2371 35.0483 14.8201 35.0667 14.8861 35.096C14.9961 35.1473 15.0805 35.2463 15.1391 35.393C15.1758 35.5323 15.2015 35.7743 15.2161 36.119C15.2161 36.4343 15.1941 36.647 15.1501 36.757C15.1061 36.8817 15.0145 36.9807 14.8751 37.054C14.7578 37.1273 14.5268 37.1677 14.1821 37.175C13.8448 37.1897 13.4525 37.197 13.0051 37.197H12.3781L11.6081 37.186C11.2561 37.186 11.0618 37.197 11.0251 37.219C10.9885 37.241 10.9628 37.2703 10.9481 37.307C10.9335 37.351 10.9261 37.4317 10.9261 37.549C10.9261 37.747 10.9408 37.8497 10.9701 37.857C11.0141 37.8717 11.6925 37.879 13.0051 37.879C14.3471 37.879 15.0438 37.89 15.0951 37.912C15.2198 37.956 15.2821 38.0623 15.2821 38.231C15.2821 38.385 15.2198 38.5023 15.0951 38.583C15.0145 38.627 14.8788 38.6527 14.6881 38.66C14.6001 38.6673 14.3031 38.671 13.7971 38.671L12.8951 38.682H11.8611C11.1058 38.682 10.6841 38.6783 10.5961 38.671C10.5155 38.6637 10.4421 38.649 10.3761 38.627C10.3395 38.5977 10.2991 38.5537 10.2551 38.495C10.2185 38.429 10.1928 38.352 10.1781 38.264C10.1635 38.1467 10.1561 37.9083 10.1561 37.549ZM23.0417 30.883C23.0637 30.883 23.104 30.8903 23.1627 30.905C23.2214 30.9197 23.2727 30.949 23.3167 30.993L23.3277 31.015C23.3644 31.0443 23.3864 31.1653 23.3937 31.378L23.3827 33.611V34.117L23.3717 36.086L23.2507 36.207C23.1994 36.2583 23.1554 36.2913 23.1187 36.306C23.0747 36.3207 23.027 36.3243 22.9757 36.317C22.7484 36.273 22.609 36.1263 22.5577 35.877C22.543 35.789 22.5357 35.5543 22.5357 35.173L22.5577 33.435C22.5944 31.961 22.631 31.1653 22.6677 31.048C22.7044 30.9747 22.7594 30.9343 22.8327 30.927L22.9207 30.905L22.9757 30.894L23.0417 30.883ZM16.9697 34.194C16.9697 33.644 16.9844 33.314 17.0137 33.204C17.0357 33.094 17.1164 33.0133 17.2557 32.962C17.3217 32.9327 17.593 32.918 18.0697 32.918H18.5647L19.2797 32.929L19.6867 32.918C19.848 32.9107 19.9397 32.874 19.9617 32.808C19.9764 32.742 19.9947 32.6027 20.0167 32.39V32.236C20.0167 32.0893 20.0057 32.0123 19.9837 32.005C19.969 31.9903 19.8224 31.983 19.5437 31.983C19.1844 31.983 18.8727 31.9867 18.6087 31.994L17.2777 32.016L17.1457 31.895C17.065 31.8143 17.0247 31.73 17.0247 31.642C17.0247 31.5907 17.0357 31.543 17.0577 31.499C17.1017 31.411 17.2044 31.3523 17.3657 31.323C17.549 31.2937 17.9487 31.2753 18.5647 31.268C18.7847 31.268 18.946 31.2643 19.0487 31.257C19.2687 31.257 19.485 31.257 19.6977 31.257C19.9177 31.2497 20.1047 31.2497 20.2587 31.257C20.4934 31.2643 20.6474 31.2973 20.7207 31.356C20.794 31.4 20.8527 31.4587 20.8967 31.532C20.9187 31.598 20.9297 31.7007 20.9297 31.84C20.9297 32.016 20.915 32.247 20.8857 32.533C20.849 32.8923 20.8197 33.105 20.7977 33.171C20.7537 33.3543 20.6217 33.4717 20.4017 33.523C20.3284 33.545 19.8994 33.567 19.1147 33.589L18.9167 33.6C18.3594 33.6073 18.0184 33.633 17.8937 33.677C17.7984 33.721 17.7507 33.864 17.7507 34.106V34.194C17.7507 34.3993 17.7544 34.5203 17.7617 34.557C17.7764 34.623 17.802 34.6707 17.8387 34.7C17.868 34.7293 17.9084 34.7513 17.9597 34.766C17.9964 34.7733 18.0734 34.7733 18.1907 34.766C18.4107 34.7367 18.858 34.7183 19.5327 34.711C19.7234 34.7037 19.9507 34.7 20.2147 34.7C20.42 34.7 20.5447 34.7037 20.5887 34.711C20.7427 34.7257 20.8674 34.7807 20.9627 34.876C21.0434 34.9567 21.0727 35.0447 21.0507 35.14C21.014 35.2573 20.9444 35.3417 20.8417 35.393C20.7904 35.4223 20.2294 35.4407 19.1587 35.448C18.7994 35.4553 18.374 35.459 17.8827 35.459C17.5527 35.459 17.362 35.4553 17.3107 35.448C17.2007 35.4407 17.1164 35.393 17.0577 35.305C17.021 35.2537 16.9954 35.173 16.9807 35.063C16.9734 34.997 16.9697 34.7073 16.9697 34.194ZM17.9817 36.988C17.9817 36.7387 17.9927 36.559 18.0147 36.449C18.0367 36.3023 18.088 36.1997 18.1687 36.141C18.2127 36.1043 18.275 36.086 18.3557 36.086C18.429 36.086 18.4987 36.1043 18.5647 36.141C18.6674 36.1923 18.7334 36.2693 18.7627 36.372C18.7847 36.4673 18.7957 36.6873 18.7957 37.032C18.7957 37.4207 18.814 37.6407 18.8507 37.692C18.8874 37.7287 19.617 37.747 21.0397 37.747C22.4624 37.747 23.1994 37.7617 23.2507 37.791C23.2947 37.813 23.3387 37.8643 23.3827 37.945C23.4267 38.033 23.4487 38.1063 23.4487 38.165C23.4487 38.2237 23.412 38.2933 23.3387 38.374L23.2177 38.506L20.8527 38.495C19.276 38.4803 18.4437 38.462 18.3557 38.44C18.187 38.3813 18.088 38.2897 18.0587 38.165C18.0074 38.0183 17.9817 37.626 17.9817 36.988ZM31.0178 31.07C31.0985 30.9967 31.1828 30.96 31.2708 30.96C31.3515 30.96 31.4321 30.9893 31.5128 31.048L31.6118 31.125V34.359C31.6118 36.4857 31.6008 37.6663 31.5788 37.901C31.5568 38.099 31.5165 38.2383 31.4578 38.319C31.4065 38.385 31.3038 38.418 31.1498 38.418C31.0618 38.418 30.9958 38.4107 30.9518 38.396C30.9298 38.3887 30.8858 38.352 30.8198 38.286L30.7098 38.154L30.7318 36.614C30.7391 36.306 30.7428 35.943 30.7428 35.525C30.7428 35.195 30.7355 35.0227 30.7208 35.008C30.7135 34.9787 30.6438 34.9567 30.5118 34.942C30.4531 34.9347 30.2735 34.931 29.9728 34.931L29.4338 34.92C28.9131 34.92 28.5575 34.9127 28.3668 34.898C28.2275 34.8833 28.1285 34.8613 28.0698 34.832C28.0038 34.788 27.9671 34.7073 27.9598 34.59V34.535C27.9598 34.4397 27.9818 34.37 28.0258 34.326C28.1285 34.2307 28.6968 34.183 29.7308 34.183C30.3175 34.183 30.6365 34.1647 30.6878 34.128C30.7245 34.106 30.7465 34.0143 30.7538 33.853C30.7611 33.787 30.7648 33.611 30.7648 33.325L30.7758 32.797C30.7978 31.939 30.8198 31.455 30.8418 31.345C30.8638 31.235 30.9225 31.1433 31.0178 31.07ZM24.8798 34.601C24.8798 33.4717 24.8835 32.8373 24.8908 32.698C24.9055 32.4853 24.9275 32.3533 24.9568 32.302C25.0155 32.2213 25.1218 32.1627 25.2758 32.126C25.4225 32.0893 25.7305 32.0673 26.1998 32.06L27.8168 32.027H28.5538L28.6748 32.126C28.7701 32.1993 28.8178 32.28 28.8178 32.368C28.8178 32.5367 28.7225 32.665 28.5318 32.753C28.4805 32.7823 28.0661 32.797 27.2888 32.797C26.2768 32.797 25.7415 32.8263 25.6828 32.885C25.6755 32.8923 25.6718 33.1747 25.6718 33.732V34.546C25.6718 35.624 25.6791 36.1923 25.6938 36.251C25.7011 36.2657 25.7781 36.2803 25.9248 36.295C26.0201 36.3023 26.1301 36.306 26.2548 36.306C26.3868 36.2987 26.5188 36.295 26.6508 36.295C26.7168 36.2877 26.8231 36.284 26.9698 36.284C27.7031 36.2767 28.2201 36.2583 28.5208 36.229C28.6675 36.2143 28.7628 36.2143 28.8068 36.229C28.8508 36.2437 28.8948 36.273 28.9388 36.317C29.0121 36.3903 29.0488 36.4637 29.0488 36.537C29.0488 36.647 28.9938 36.746 28.8838 36.834C28.8105 36.9 28.7298 36.9367 28.6418 36.944C28.3485 36.9733 28.0698 36.999 27.8058 37.021C27.4318 37.043 27.0431 37.054 26.6398 37.054H26.2218C25.6718 37.054 25.3235 37.0357 25.1768 36.999C25.1695 36.9917 25.1548 36.988 25.1328 36.988C25.0155 36.9587 24.9458 36.8597 24.9238 36.691C24.9091 36.559 24.8945 36.0053 24.8798 35.03V34.601Z" fill="#3C4045"/>
</svg>
