<svg width="41" height="40" viewBox="0 0 41 40" fill="none" xmlns="http://www.w3.org/2000/svg">
<path d="M11.7 25C11.095 25 10.5773 24.7848 10.1468 24.3543C9.71633 23.9238 9.50073 23.4057 9.5 22.8V9.6C9.5 8.995 9.7156 8.47727 10.1468 8.0468C10.578 7.61633 11.0957 7.40073 11.7 7.4H16.1L20.5 3L24.9 7.4H29.3C29.905 7.4 30.4231 7.6156 30.8543 8.0468C31.2855 8.478 31.5007 8.99573 31.5 9.6V22.8C31.5 23.405 31.2848 23.9231 30.8543 24.3543C30.4238 24.7855 29.9057 25.0007 29.3 25H11.7ZM13.9 20.6H27.1L22.975 15.1L19.675 19.5L17.2 16.2L13.9 20.6ZM26.55 15.1C27.0083 15.1 27.3981 14.9398 27.7193 14.6193C28.0405 14.2988 28.2007 13.9091 28.2 13.45C28.2 12.9917 28.0398 12.6023 27.7193 12.2818C27.3988 11.9613 27.0091 11.8007 26.55 11.8C26.0917 11.8 25.7023 11.9606 25.3818 12.2818C25.0613 12.603 24.9007 12.9924 24.9 13.45C24.9 13.9083 25.0606 14.2981 25.3818 14.6193C25.703 14.9405 26.0924 15.1007 26.55 15.1ZM18.41 7.4H22.59L20.5 5.31L18.41 7.4Z" fill="#3C4045"/>
<path d="M14.5293 31.026C14.5879 30.9747 14.6833 30.949 14.8153 30.949C14.9253 30.949 15.0096 30.9783 15.0683 31.037C15.1049 31.081 15.1269 31.224 15.1343 31.466C15.1416 31.576 15.1453 31.9427 15.1453 32.566L15.1563 33.655C15.1636 34.0583 15.1673 34.5423 15.1673 35.107C15.1673 35.5103 15.1636 35.756 15.1563 35.844C15.1416 36.108 15.1196 36.2657 15.0903 36.317C15.0536 36.383 15.0206 36.4197 14.9913 36.427C14.9473 36.4417 14.8923 36.449 14.8263 36.449C14.5989 36.449 14.4559 36.3647 14.3973 36.196C14.3679 36.13 14.3423 35.712 14.3203 34.942C14.3129 34.2013 14.2946 33.8053 14.2653 33.754C14.2433 33.7027 14.0196 33.6733 13.5943 33.666C13.1689 33.644 12.8903 33.6037 12.7583 33.545C12.6409 33.4937 12.5933 33.38 12.6153 33.204C12.6299 33.1233 12.6776 33.0573 12.7583 33.006C12.8096 32.962 12.8829 32.9327 12.9783 32.918C13.0296 32.9107 13.2239 32.907 13.5613 32.907C13.9939 32.907 14.2286 32.8887 14.2653 32.852C14.2873 32.8153 14.3093 32.6173 14.3313 32.258C14.3679 31.7447 14.3936 31.433 14.4083 31.323C14.4303 31.169 14.4706 31.07 14.5293 31.026ZM8.43528 31.785C8.42794 31.763 8.42428 31.73 8.42428 31.686C8.42428 31.576 8.46461 31.4917 8.54528 31.433C8.64794 31.3597 8.84594 31.3193 9.13928 31.312C9.50594 31.2973 10.1293 31.29 11.0093 31.29L12.4503 31.279L12.5603 31.4C12.6409 31.4807 12.6813 31.5577 12.6813 31.631C12.6813 31.697 12.6593 31.763 12.6153 31.829C12.5713 31.9023 12.4906 31.95 12.3733 31.972C12.2633 32.0013 12.0506 32.016 11.7353 32.016C11.3393 32.0233 11.1083 32.0343 11.0423 32.049C10.9689 32.0563 10.9213 32.1003 10.8993 32.181C10.8699 32.247 10.8443 32.4157 10.8223 32.687C10.8149 32.8703 10.8149 32.984 10.8223 33.028C10.8296 33.0793 10.8626 33.149 10.9213 33.237C11.0166 33.3837 11.2073 33.589 11.4933 33.853C11.7206 34.073 11.9993 34.3077 12.3293 34.557C12.5566 34.733 12.6703 34.887 12.6703 35.019C12.6703 35.1217 12.6079 35.2097 12.4833 35.283C12.4099 35.3197 12.3439 35.338 12.2853 35.338C12.2413 35.338 12.1973 35.327 12.1533 35.305C12.0433 35.261 11.8233 35.107 11.4933 34.843C11.0679 34.4983 10.7599 34.2343 10.5693 34.051C10.5399 34.0217 10.4996 34.007 10.4483 34.007C10.4043 34.007 10.2833 34.1133 10.0853 34.326C9.90194 34.5167 9.71128 34.7477 9.51328 35.019C9.36661 35.2097 9.25294 35.3307 9.17228 35.382C9.07694 35.4407 8.97794 35.47 8.87528 35.47C8.77261 35.47 8.67728 35.4223 8.58928 35.327C8.49394 35.239 8.44628 35.1657 8.44628 35.107C8.44628 34.953 8.62961 34.6817 8.99628 34.293C9.49494 33.7723 9.80294 33.4167 9.92028 33.226C9.97161 33.1527 10.0193 32.9473 10.0633 32.61C10.0926 32.346 10.1073 32.2067 10.1073 32.192C10.1073 32.1407 10.0999 32.1077 10.0853 32.093C10.0339 32.0637 9.86528 32.0453 9.57928 32.038C9.28594 32.0233 9.08794 32.0233 8.98528 32.038H8.93028C8.83494 32.038 8.73594 32.016 8.63328 31.972C8.50861 31.9133 8.44261 31.851 8.43528 31.785ZM9.56828 37.516C9.56828 36.878 9.59028 36.4417 9.63428 36.207C9.67094 36.0457 9.74061 35.9613 9.84328 35.954C9.87261 35.9467 9.90928 35.943 9.95328 35.943C10.1293 35.943 10.2539 36.0237 10.3273 36.185C10.3493 36.2217 10.3676 36.4637 10.3823 36.911C10.3823 37.351 10.3933 37.5893 10.4153 37.626C10.4446 37.6553 10.9579 37.67 11.9553 37.67H12.6703L14.8923 37.648L14.9913 37.769C15.0499 37.8423 15.0793 37.9303 15.0793 38.033C15.0793 38.1503 15.0426 38.2457 14.9693 38.319C14.8959 38.3703 14.7859 38.3997 14.6393 38.407C14.5219 38.4217 14.0526 38.429 13.2313 38.429H12.1423H11.8673C10.7673 38.4143 10.1403 38.3997 9.98628 38.385C9.80294 38.363 9.68194 38.2897 9.62328 38.165C9.62328 38.1503 9.61961 38.1393 9.61228 38.132C9.58294 38.0293 9.56828 37.824 9.56828 37.516ZM22.9172 30.96C23.0052 30.96 23.0822 30.9747 23.1482 31.004C23.2362 31.0553 23.2949 31.125 23.3242 31.213C23.3535 31.279 23.3792 32.39 23.4012 34.546L23.4122 36.504C23.4122 37.3987 23.4012 37.901 23.3792 38.011C23.3719 38.1357 23.3279 38.2347 23.2472 38.308C23.1959 38.374 23.1555 38.4107 23.1262 38.418C23.1042 38.4253 23.0272 38.429 22.8952 38.429C22.7559 38.4217 22.6752 38.407 22.6532 38.385C22.5725 38.3043 22.5322 37.8423 22.5322 36.999V34.799L22.5432 31.334C22.5432 31.2607 22.5799 31.1837 22.6532 31.103C22.7265 31.015 22.7889 30.9673 22.8402 30.96H22.9172ZM16.4272 36.581C16.4272 36.4563 16.4419 36.361 16.4712 36.295C16.5152 36.207 16.5775 36.119 16.6582 36.031L16.9222 35.723L17.1092 35.503L17.2852 35.305C17.5785 34.953 17.8535 34.5753 18.1102 34.172C18.2495 33.9447 18.3449 33.7027 18.3962 33.446C18.4402 33.2333 18.4695 32.8667 18.4842 32.346L18.5062 31.609L18.6602 31.477C18.7629 31.389 18.8399 31.345 18.8912 31.345C18.9572 31.345 19.0269 31.3707 19.1002 31.422C19.1735 31.4733 19.2212 31.5247 19.2432 31.576C19.2725 31.6347 19.2872 31.84 19.2872 32.192V32.555C19.2652 33.1343 19.2285 33.501 19.1772 33.655C19.1625 33.7137 19.2542 33.842 19.4522 34.04L19.9362 34.546L20.0792 34.689C20.1159 34.7403 20.1929 34.8247 20.3102 34.942L20.5302 35.195C20.9555 35.6423 21.2195 35.976 21.3222 36.196C21.3662 36.284 21.3882 36.361 21.3882 36.427C21.3882 36.5297 21.3442 36.614 21.2562 36.68C21.1829 36.7387 21.0985 36.768 21.0032 36.768C20.9445 36.768 20.8859 36.7497 20.8272 36.713C20.7979 36.691 20.7025 36.5957 20.5412 36.427C19.4559 35.261 18.8912 34.6707 18.8472 34.656H18.8252C18.7885 34.656 18.7519 34.6743 18.7152 34.711C18.6639 34.7623 18.5759 34.8833 18.4512 35.074L18.3522 35.217L18.1872 35.448L18.0442 35.646C17.5895 36.2767 17.3035 36.658 17.1862 36.79C17.0542 36.9367 16.9295 37.01 16.8122 37.01C16.7095 37.01 16.6179 36.977 16.5372 36.911C16.4932 36.8817 16.4639 36.8413 16.4492 36.79C16.4345 36.746 16.4272 36.6763 16.4272 36.581ZM31.0022 30.971C31.0755 30.9563 31.1305 30.949 31.1672 30.949C31.3505 30.949 31.4789 31.026 31.5522 31.18C31.5742 31.2313 31.5925 31.455 31.6072 31.851C31.6145 32.0123 31.6182 32.5 31.6182 33.314L31.6292 34.777L31.6402 38.22L31.5632 38.33C31.5192 38.3887 31.4825 38.4217 31.4532 38.429C31.4312 38.4363 31.3615 38.44 31.2442 38.44C31.1049 38.44 31.0169 38.429 30.9802 38.407C30.9362 38.385 30.8885 38.3263 30.8372 38.231C30.8152 38.1797 30.7969 37.9707 30.7822 37.604C30.7749 37.3767 30.7712 36.383 30.7712 34.623L30.7602 32.643L30.7712 31.642C30.7785 31.3047 30.8005 31.114 30.8372 31.07C30.8959 31.0113 30.9509 30.9783 31.0022 30.971ZM24.7542 32.533C24.8055 32.4817 24.8532 32.4523 24.8972 32.445C25.0145 32.423 25.1209 32.4083 25.2162 32.401C25.3409 32.3937 25.7919 32.39 26.5692 32.39H27.6032L29.6052 32.401L29.7262 32.511C29.8142 32.5843 29.8509 32.665 29.8362 32.753C29.8142 32.8337 29.7885 32.8887 29.7592 32.918C29.7152 32.962 29.6565 33.0023 29.5832 33.039C29.4952 33.083 29.1175 33.105 28.4502 33.105C27.7829 33.105 27.4492 33.1197 27.4492 33.149C27.4492 33.171 27.5115 33.204 27.6362 33.248C27.7829 33.2993 27.8599 33.3323 27.8672 33.347C27.9039 33.369 27.9625 33.3873 28.0432 33.402C28.1385 33.424 28.2852 33.4937 28.4832 33.611C28.6225 33.699 28.7509 33.8053 28.8682 33.93C28.9709 34.04 29.0589 34.194 29.1322 34.392C29.1909 34.524 29.2202 34.6633 29.2202 34.81C29.2202 34.9273 29.1945 35.0813 29.1432 35.272C29.0479 35.6093 28.8792 35.8917 28.6372 36.119C28.4319 36.3023 28.1899 36.4307 27.9112 36.504C27.7865 36.5333 27.7095 36.5627 27.6802 36.592C27.6655 36.6067 27.6509 36.702 27.6362 36.878V36.999C27.6362 37.0943 27.6435 37.1493 27.6582 37.164C27.6729 37.1787 27.8635 37.186 28.2302 37.186H28.7032C29.3559 37.1787 29.7372 37.1933 29.8472 37.23C29.9865 37.3033 30.0562 37.406 30.0562 37.538C30.0562 37.6993 29.9572 37.8203 29.7592 37.901C29.6932 37.9303 28.8902 37.945 27.3502 37.945C26.2062 37.945 25.5499 37.9413 25.3812 37.934C25.1319 37.934 24.9779 37.9157 24.9192 37.879C24.7945 37.7983 24.7322 37.714 24.7322 37.626C24.7322 37.5747 24.7469 37.5233 24.7762 37.472C24.8055 37.406 24.8422 37.351 24.8862 37.307C24.9155 37.2997 25.2382 37.2777 25.8542 37.241L26.7672 37.197L26.8002 36.933C26.8149 36.7643 26.8149 36.658 26.8002 36.614C26.7855 36.5773 26.7085 36.526 26.5692 36.46C26.4445 36.4087 26.2759 36.3097 26.0632 36.163C25.8285 36.0017 25.6855 35.8953 25.6342 35.844C25.5095 35.7047 25.4179 35.5067 25.3592 35.25C25.3445 35.184 25.3372 35.0887 25.3372 34.964C25.3372 34.7147 25.4032 34.4653 25.5352 34.216C25.6745 33.952 25.8542 33.7467 26.0742 33.6C26.2869 33.4533 26.6205 33.2957 27.0752 33.127L26.6902 33.105H26.6682L25.5572 33.072C25.2639 33.0573 25.0769 33.0463 24.9962 33.039C24.9155 33.0243 24.8459 32.995 24.7872 32.951C24.7065 32.885 24.6662 32.8153 24.6662 32.742C24.6662 32.676 24.6955 32.6063 24.7542 32.533ZM25.7002 31.18C25.7149 31.1653 26.0669 31.1543 26.7562 31.147L27.9992 31.114H28.0652C28.1532 31.114 28.2412 31.1323 28.3292 31.169C28.4172 31.2203 28.4795 31.2863 28.5162 31.367C28.5309 31.389 28.5382 31.433 28.5382 31.499C28.5382 31.5577 28.5309 31.6053 28.5162 31.642C28.4795 31.7447 28.4319 31.8143 28.3732 31.851C28.2852 31.895 28.0505 31.917 27.6692 31.917C27.3905 31.917 27.0349 31.906 26.6022 31.884C26.3822 31.8767 26.1732 31.862 25.9752 31.84C25.8945 31.8327 25.8175 31.807 25.7442 31.763C25.6342 31.6823 25.5792 31.5943 25.5792 31.499C25.5792 31.4477 25.5975 31.3853 25.6342 31.312L25.7002 31.18ZM26.1402 34.843C26.1255 34.931 26.1182 34.9897 26.1182 35.019C26.1182 35.129 26.1439 35.2207 26.1952 35.294C26.2612 35.404 26.4042 35.514 26.6242 35.624C26.7782 35.69 26.9689 35.723 27.1962 35.723C27.4235 35.723 27.6289 35.6827 27.8122 35.602C28.0395 35.492 28.2009 35.3563 28.2962 35.195C28.3475 35.0997 28.3732 34.997 28.3732 34.887C28.3732 34.8063 28.3622 34.7293 28.3402 34.656C28.2669 34.3847 27.9845 34.1757 27.4932 34.029C27.3905 33.9923 27.2769 33.974 27.1522 33.974C26.9102 33.974 26.6939 34.0547 26.5032 34.216C26.3199 34.37 26.1989 34.579 26.1402 34.843Z" fill="#3C4045"/>
</svg>
