<svg width="41" height="40" viewBox="0 0 41 40" fill="none" xmlns="http://www.w3.org/2000/svg">
<path d="M19 25C19 25 17.5 25 17.5 23.5C17.5 22 19 17.5 25 17.5C31 17.5 32.5 22 32.5 23.5C32.5 25 31 25 31 25H19ZM25 16C26.1935 16 27.3381 15.5259 28.182 14.682C29.0259 13.8381 29.5 12.6935 29.5 11.5C29.5 10.3065 29.0259 9.16193 28.182 8.31802C27.3381 7.47411 26.1935 7 25 7C23.8065 7 22.6619 7.47411 21.818 8.31802C20.9741 9.16193 20.5 10.3065 20.5 11.5C20.5 12.6935 20.9741 13.8381 21.818 14.682C22.6619 15.5259 23.8065 16 25 16ZM16.324 25C16.1016 24.5317 15.9907 24.0183 16 23.5C16 21.4675 17.02 19.375 18.904 17.92C17.9636 17.6303 16.9839 17.4886 16 17.5C10 17.5 8.5 22 8.5 23.5C8.5 25 10 25 10 25H16.324ZM15.25 16C16.2446 16 17.1984 15.6049 17.9017 14.9017C18.6049 14.1984 19 13.2446 19 12.25C19 11.2554 18.6049 10.3016 17.9017 9.59835C17.1984 8.89509 16.2446 8.5 15.25 8.5C14.2554 8.5 13.3016 8.89509 12.5983 9.59835C11.8951 10.3016 11.5 11.2554 11.5 12.25C11.5 13.2446 11.8951 14.1984 12.5983 14.9017C13.3016 15.6049 14.2554 16 15.25 16Z" fill="#3C4045"/>
<path d="M6.41893 31.026C6.47759 30.9747 6.57293 30.949 6.70493 30.949C6.81493 30.949 6.89926 30.9783 6.95793 31.037C6.99459 31.081 7.01659 31.224 7.02393 31.466C7.03126 31.576 7.03493 31.9427 7.03493 32.566L7.04593 33.655C7.05326 34.0583 7.05693 34.5423 7.05693 35.107C7.05693 35.5103 7.05326 35.756 7.04593 35.844C7.03126 36.108 7.00926 36.2657 6.97993 36.317C6.94326 36.383 6.91026 36.4197 6.88093 36.427C6.83693 36.4417 6.78193 36.449 6.71593 36.449C6.48859 36.449 6.34559 36.3647 6.28693 36.196C6.25759 36.13 6.23193 35.712 6.20993 34.942C6.20259 34.2013 6.18426 33.8053 6.15493 33.754C6.13293 33.7027 5.90926 33.6733 5.48393 33.666C5.05859 33.644 4.77993 33.6037 4.64793 33.545C4.53059 33.4937 4.48293 33.38 4.50493 33.204C4.51959 33.1233 4.56726 33.0573 4.64793 33.006C4.69926 32.962 4.77259 32.9327 4.86793 32.918C4.91926 32.9107 5.11359 32.907 5.45093 32.907C5.88359 32.907 6.11826 32.8887 6.15493 32.852C6.17693 32.8153 6.19893 32.6173 6.22093 32.258C6.25759 31.7447 6.28326 31.433 6.29793 31.323C6.31993 31.169 6.36026 31.07 6.41893 31.026ZM0.324926 31.785C0.317592 31.763 0.313926 31.73 0.313926 31.686C0.313926 31.576 0.354259 31.4917 0.434926 31.433C0.537592 31.3597 0.735592 31.3193 1.02893 31.312C1.39559 31.2973 2.01893 31.29 2.89893 31.29L4.33993 31.279L4.44993 31.4C4.53059 31.4807 4.57093 31.5577 4.57093 31.631C4.57093 31.697 4.54893 31.763 4.50493 31.829C4.46093 31.9023 4.38026 31.95 4.26293 31.972C4.15293 32.0013 3.94026 32.016 3.62493 32.016C3.22893 32.0233 2.99793 32.0343 2.93193 32.049C2.85859 32.0563 2.81093 32.1003 2.78893 32.181C2.75959 32.247 2.73393 32.4157 2.71193 32.687C2.70459 32.8703 2.70459 32.984 2.71193 33.028C2.71926 33.0793 2.75226 33.149 2.81093 33.237C2.90626 33.3837 3.09693 33.589 3.38293 33.853C3.61026 34.073 3.88893 34.3077 4.21893 34.557C4.44626 34.733 4.55993 34.887 4.55993 35.019C4.55993 35.1217 4.49759 35.2097 4.37293 35.283C4.29959 35.3197 4.23359 35.338 4.17493 35.338C4.13093 35.338 4.08693 35.327 4.04293 35.305C3.93293 35.261 3.71293 35.107 3.38293 34.843C2.95759 34.4983 2.64959 34.2343 2.45893 34.051C2.42959 34.0217 2.38926 34.007 2.33793 34.007C2.29393 34.007 2.17293 34.1133 1.97493 34.326C1.79159 34.5167 1.60093 34.7477 1.40293 35.019C1.25626 35.2097 1.14259 35.3307 1.06193 35.382C0.966592 35.4407 0.867592 35.47 0.764926 35.47C0.662259 35.47 0.566926 35.4223 0.478926 35.327C0.383592 35.239 0.335926 35.1657 0.335926 35.107C0.335926 34.953 0.519259 34.6817 0.885926 34.293C1.38459 33.7723 1.69259 33.4167 1.80993 33.226C1.86126 33.1527 1.90893 32.9473 1.95293 32.61C1.98226 32.346 1.99693 32.2067 1.99693 32.192C1.99693 32.1407 1.98959 32.1077 1.97493 32.093C1.92359 32.0637 1.75493 32.0453 1.46893 32.038C1.17559 32.0233 0.977592 32.0233 0.874926 32.038H0.819926C0.724592 32.038 0.625592 32.016 0.522926 31.972C0.398259 31.9133 0.332259 31.851 0.324926 31.785ZM1.45793 37.516C1.45793 36.878 1.47993 36.4417 1.52393 36.207C1.56059 36.0457 1.63026 35.9613 1.73293 35.954C1.76226 35.9467 1.79893 35.943 1.84293 35.943C2.01893 35.943 2.14359 36.0237 2.21693 36.185C2.23893 36.2217 2.25726 36.4637 2.27193 36.911C2.27193 37.351 2.28293 37.5893 2.30493 37.626C2.33426 37.6553 2.84759 37.67 3.84493 37.67H4.55993L6.78193 37.648L6.88093 37.769C6.93959 37.8423 6.96893 37.9303 6.96893 38.033C6.96893 38.1503 6.93226 38.2457 6.85893 38.319C6.78559 38.3703 6.67559 38.3997 6.52893 38.407C6.41159 38.4217 5.94226 38.429 5.12093 38.429H4.03193H3.75693C2.65693 38.4143 2.02993 38.3997 1.87593 38.385C1.69259 38.363 1.57159 38.2897 1.51293 38.165C1.51293 38.1503 1.50926 38.1393 1.50193 38.132C1.47259 38.0293 1.45793 37.824 1.45793 37.516ZM14.8069 30.96C14.8949 30.96 14.9719 30.9747 15.0379 31.004C15.1259 31.0553 15.1845 31.125 15.2139 31.213C15.2432 31.279 15.2689 32.39 15.2909 34.546L15.3019 36.504C15.3019 37.3987 15.2909 37.901 15.2689 38.011C15.2615 38.1357 15.2175 38.2347 15.1369 38.308C15.0855 38.374 15.0452 38.4107 15.0159 38.418C14.9939 38.4253 14.9169 38.429 14.7849 38.429C14.6455 38.4217 14.5649 38.407 14.5429 38.385C14.4622 38.3043 14.4219 37.8423 14.4219 36.999V34.799L14.4329 31.334C14.4329 31.2607 14.4695 31.1837 14.5429 31.103C14.6162 31.015 14.6785 30.9673 14.7299 30.96H14.8069ZM8.31686 36.581C8.31686 36.4563 8.33152 36.361 8.36086 36.295C8.40486 36.207 8.46719 36.119 8.54786 36.031L8.81186 35.723L8.99886 35.503L9.17486 35.305C9.46819 34.953 9.74319 34.5753 9.99986 34.172C10.1392 33.9447 10.2345 33.7027 10.2859 33.446C10.3299 33.2333 10.3592 32.8667 10.3739 32.346L10.3959 31.609L10.5499 31.477C10.6525 31.389 10.7295 31.345 10.7809 31.345C10.8469 31.345 10.9165 31.3707 10.9899 31.422C11.0632 31.4733 11.1109 31.5247 11.1329 31.576C11.1622 31.6347 11.1769 31.84 11.1769 32.192V32.555C11.1549 33.1343 11.1182 33.501 11.0669 33.655C11.0522 33.7137 11.1439 33.842 11.3419 34.04L11.8259 34.546L11.9689 34.689C12.0055 34.7403 12.0825 34.8247 12.1999 34.942L12.4199 35.195C12.8452 35.6423 13.1092 35.976 13.2119 36.196C13.2559 36.284 13.2779 36.361 13.2779 36.427C13.2779 36.5297 13.2339 36.614 13.1459 36.68C13.0725 36.7387 12.9882 36.768 12.8929 36.768C12.8342 36.768 12.7755 36.7497 12.7169 36.713C12.6875 36.691 12.5922 36.5957 12.4309 36.427C11.3455 35.261 10.7809 34.6707 10.7369 34.656H10.7149C10.6782 34.656 10.6415 34.6743 10.6049 34.711C10.5535 34.7623 10.4655 34.8833 10.3409 35.074L10.2419 35.217L10.0769 35.448L9.93386 35.646C9.47919 36.2767 9.19319 36.658 9.07586 36.79C8.94386 36.9367 8.81919 37.01 8.70186 37.01C8.59919 37.01 8.50752 36.977 8.42686 36.911C8.38286 36.8817 8.35352 36.8413 8.33886 36.79C8.32419 36.746 8.31686 36.6763 8.31686 36.581ZM23.3209 31.103C23.3575 31.103 23.4052 31.1213 23.4639 31.158C23.5299 31.1947 23.5775 31.235 23.6069 31.279C23.6289 31.301 23.6472 31.4917 23.6619 31.851C23.6692 32.0857 23.6729 33.006 23.6729 34.612V34.931C23.6729 36.4343 23.6655 37.3693 23.6509 37.736C23.6289 38.022 23.5592 38.1907 23.4419 38.242L23.4199 38.253C23.3685 38.2823 23.3282 38.297 23.2989 38.297C23.2475 38.297 23.1889 38.2823 23.1229 38.253C23.1229 38.253 23.1045 38.2457 23.0679 38.231C22.9359 38.187 22.8625 38.0587 22.8479 37.846C22.8259 37.6333 22.8149 36.911 22.8149 35.679V35.261C22.8295 33.4423 22.8405 32.346 22.8479 31.972C22.8699 31.6713 22.8992 31.4697 22.9359 31.367C22.9725 31.279 23.0495 31.2093 23.1669 31.158L23.3209 31.103ZM16.5669 32.269L16.6879 32.159L16.8199 32.049L18.0189 32.016H18.0629L18.3709 32.005C18.5249 32.005 18.6275 32.0013 18.6789 31.994C18.7449 31.994 18.8952 32.0013 19.1299 32.016L19.4709 32.038C19.5369 32.0527 19.6065 32.082 19.6799 32.126C19.7752 32.1847 19.8265 32.225 19.8339 32.247L19.8889 32.445C19.9182 32.5403 19.9329 32.632 19.9329 32.72C19.9255 32.7933 19.9255 32.918 19.9329 33.094V33.116C19.9329 33.578 19.9475 33.8347 19.9769 33.886C19.9989 33.9227 20.0392 33.941 20.0979 33.941L20.2629 33.952C20.5049 33.952 20.7029 33.9447 20.8569 33.93C21.0182 33.9153 21.1172 33.9007 21.1539 33.886C21.1759 33.8713 21.1869 33.523 21.1869 32.841C21.1869 32.1517 21.2015 31.7593 21.2309 31.664C21.2529 31.5907 21.2969 31.521 21.3629 31.455C21.4362 31.3963 21.5095 31.356 21.5829 31.334L21.6709 31.312H21.6929C21.7222 31.312 21.7735 31.334 21.8469 31.378C21.9422 31.444 21.9935 31.499 22.0009 31.543C22.0229 31.5943 22.0522 32.6063 22.0889 34.579L22.1109 36.845C22.1109 37.3437 22.1035 37.6443 22.0889 37.747C22.0669 37.8717 22.0339 37.9633 21.9899 38.022C21.9092 38.1027 21.8212 38.143 21.7259 38.143C21.6452 38.143 21.5719 38.1283 21.5059 38.099C21.3959 38.0477 21.3262 37.934 21.2969 37.758C21.2602 37.582 21.2382 37.0833 21.2309 36.262C21.2235 35.3013 21.1979 34.799 21.1539 34.755C21.1319 34.733 20.9742 34.711 20.6809 34.689C20.4902 34.6743 20.3655 34.667 20.3069 34.667C20.2189 34.667 20.1382 34.6743 20.0649 34.689C19.9915 34.6963 19.9475 34.7513 19.9329 34.854C19.9182 34.9347 19.9035 35.2133 19.8889 35.69C19.8889 36.0787 19.8779 36.339 19.8559 36.471C19.8265 36.603 19.7679 36.7057 19.6799 36.779C19.6432 36.8157 19.5515 36.8413 19.4049 36.856L18.9869 36.867L18.1729 36.856C17.4322 36.856 17.0179 36.8523 16.9299 36.845C16.7905 36.8303 16.6989 36.8047 16.6549 36.768C16.6182 36.7313 16.5925 36.6103 16.5779 36.405C16.5705 36.2803 16.5669 35.6387 16.5669 34.48V32.269ZM17.3259 34.491C17.3405 35.5103 17.3552 36.031 17.3699 36.053C17.3992 36.0823 17.6669 36.1007 18.1729 36.108C18.5395 36.1153 18.7595 36.1153 18.8329 36.108C18.9135 36.0933 18.9649 36.0713 18.9869 36.042C19.0162 35.9907 19.0382 35.4443 19.0529 34.403V33.732C19.0529 33.1453 19.0419 32.841 19.0199 32.819C18.9905 32.7897 18.8219 32.775 18.5139 32.775C18.0372 32.775 17.7182 32.7823 17.5569 32.797C17.4615 32.8043 17.3955 32.8373 17.3589 32.896C17.3369 32.9253 17.3259 33.2333 17.3259 33.82V34.491ZM31.227 31.015C31.315 30.9783 31.3664 30.96 31.381 30.96H31.403C31.4324 30.96 31.4837 30.9783 31.557 31.015C31.6377 31.0663 31.6817 31.1103 31.689 31.147C31.711 31.169 31.7294 32.3643 31.744 34.733L31.755 38.242L31.667 38.33C31.601 38.396 31.4947 38.429 31.348 38.429C31.2014 38.429 31.0987 38.396 31.04 38.33C30.9667 38.2347 30.93 37.054 30.93 34.788V33.765L30.941 32.72C30.941 32.126 30.9447 31.774 30.952 31.664C30.9667 31.4147 30.9887 31.2643 31.018 31.213C31.0767 31.125 31.1464 31.059 31.227 31.015ZM24.935 34.535C24.935 34.0437 24.9864 33.7063 25.089 33.523C25.1257 33.435 25.144 33.38 25.144 33.358C25.144 33.314 25.243 33.1013 25.441 32.72C25.551 32.5073 25.7307 32.3093 25.98 32.126C26.222 31.9353 26.4567 31.8253 26.684 31.796C26.7134 31.7887 26.7647 31.785 26.838 31.785C27.366 31.785 27.806 31.884 28.158 32.082C28.444 32.2433 28.675 32.4927 28.851 32.83C29.005 33.1307 29.1004 33.3617 29.137 33.523C29.1737 33.7283 29.192 34.018 29.192 34.392C29.192 34.7513 29.1884 34.964 29.181 35.03C29.1737 35.1033 29.137 35.239 29.071 35.437C28.917 35.899 28.7044 36.2657 28.433 36.537C28.279 36.7057 28.0884 36.8303 27.861 36.911C27.663 36.9843 27.3844 37.021 27.025 37.021C26.871 37.021 26.6877 36.9917 26.475 36.933C26.3064 36.889 26.134 36.8193 25.958 36.724C25.474 36.4087 25.1477 35.8477 24.979 35.041C24.9497 34.9163 24.935 34.7477 24.935 34.535ZM25.76 34.601C25.804 35.151 25.9544 35.5763 26.211 35.877C26.409 36.1117 26.7097 36.229 27.113 36.229C27.311 36.229 27.5054 36.1813 27.696 36.086C27.8427 36.02 27.9747 35.8843 28.092 35.679C28.2094 35.4737 28.29 35.2463 28.334 34.997C28.3707 34.8283 28.389 34.6377 28.389 34.425C28.389 34.073 28.323 33.732 28.191 33.402C28.1397 33.2627 28.0334 33.1087 27.872 32.94C27.7107 32.7787 27.564 32.6723 27.432 32.621C27.3 32.5697 27.179 32.544 27.069 32.544C26.9297 32.544 26.7647 32.6063 26.574 32.731C26.376 32.863 26.222 33.017 26.112 33.193C25.9947 33.3837 25.8994 33.6293 25.826 33.93C25.7747 34.1573 25.7527 34.381 25.76 34.601ZM34.4649 31.587C34.5162 31.5503 34.6519 31.5247 34.8719 31.51C35.0186 31.5027 35.7226 31.499 36.9839 31.499H39.4039L39.5029 31.642C39.5689 31.73 39.6019 31.8107 39.6019 31.884C39.6019 31.9427 39.5799 32.0013 39.5359 32.06C39.4626 32.1553 39.2976 32.2103 39.0409 32.225C38.7916 32.2323 38.0619 32.2213 36.8519 32.192C36.7492 32.192 36.6722 32.1883 36.6209 32.181L35.8619 32.17C35.5099 32.17 35.3119 32.181 35.2679 32.203L35.1469 32.258V33.27H37.1269C38.1242 33.27 38.6926 33.2737 38.8319 33.281C39.0152 33.2883 39.1546 33.314 39.2499 33.358C39.4259 33.4313 39.5139 33.5487 39.5139 33.71C39.5139 33.8347 39.4406 33.9373 39.2939 34.018C39.2352 34.0473 39.1106 34.062 38.9199 34.062C38.7952 34.0693 38.6449 34.073 38.4689 34.073C38.3002 34.0657 38.1242 34.062 37.9409 34.062C37.8602 34.0547 37.7246 34.051 37.5339 34.051C36.8079 34.0437 36.1552 34.029 35.5759 34.007L35.3449 33.996C35.2642 33.996 35.2092 34.0033 35.1799 34.018C35.1359 34.0473 35.1102 34.2123 35.1029 34.513L35.0919 34.81C35.0919 34.9567 35.1029 35.052 35.1249 35.096L35.1689 35.217L37.2809 35.206C38.6962 35.206 39.4369 35.2207 39.5029 35.25C39.6569 35.3233 39.7339 35.4737 39.7339 35.701C39.7339 35.8183 39.6826 35.921 39.5799 36.009C39.5139 36.075 39.4406 36.1153 39.3599 36.13L39.2499 36.141C39.1619 36.141 39.0519 36.13 38.9199 36.108C38.7806 36.086 38.1756 36.0567 37.1049 36.02C35.4989 35.9907 34.6226 35.9283 34.4759 35.833C34.3439 35.7523 34.2742 35.624 34.2669 35.448C34.2522 35.316 34.2449 35.074 34.2449 34.722L34.2559 33.71C34.2706 32.5073 34.2926 31.8693 34.3219 31.796C34.3439 31.708 34.3916 31.6383 34.4649 31.587ZM33.2109 37.78C33.1596 37.7287 33.1339 37.6663 33.1339 37.593C33.1339 37.5123 33.1706 37.4353 33.2439 37.362C33.2512 37.362 33.2549 37.3583 33.2549 37.351C33.3136 37.285 33.4272 37.2447 33.5959 37.23C33.8452 37.2153 34.3952 37.197 35.2459 37.175H35.4989C36.1516 37.153 36.8886 37.142 37.7099 37.142H38.5789C39.5029 37.142 40.0199 37.1457 40.1299 37.153C40.2912 37.1603 40.3976 37.186 40.4489 37.23C40.5222 37.2813 40.5662 37.3767 40.5809 37.516V37.571C40.5809 37.6737 40.5552 37.7507 40.5039 37.802C40.4599 37.8387 40.2802 37.8607 39.9649 37.868C39.7522 37.8753 38.7146 37.879 36.8519 37.879H33.2879L33.2109 37.78Z" fill="#3C4045"/>
</svg>
