<svg width="41" height="40" viewBox="0 0 41 40" fill="none" xmlns="http://www.w3.org/2000/svg">
<path d="M27.1936 12.1313C27.2311 11.85 27.2498 11.5594 27.2498 11.25C27.2498 10.95 27.2311 10.65 27.1842 10.3688L29.0873 8.8875C29.1693 8.81991 29.2254 8.72597 29.2459 8.62169C29.2664 8.51741 29.2501 8.40925 29.1998 8.31563L27.3998 5.20313C27.3468 5.10897 27.2622 5.0366 27.161 4.99885C27.0597 4.9611 26.9484 4.9604 26.8467 4.99688L24.6061 5.89688C24.1373 5.54063 23.6404 5.24063 23.0873 5.01563L22.7498 2.63438C22.7332 2.52706 22.6787 2.42926 22.5961 2.35873C22.5135 2.2882 22.4084 2.24962 22.2998 2.25H18.6998C18.4748 2.25 18.2967 2.40938 18.2592 2.63438L17.9217 5.01563C17.3686 5.24063 16.8623 5.55 16.4029 5.89688L14.1623 4.99688C13.9561 4.92188 13.7217 4.99688 13.6092 5.20313L11.8186 8.31563C11.7061 8.5125 11.7436 8.75625 11.9311 8.8875L13.8342 10.3688C13.7873 10.65 13.7498 10.9594 13.7498 11.25C13.7498 11.5406 13.7686 11.85 13.8154 12.1313L11.9123 13.6125C11.8303 13.6801 11.7743 13.774 11.7538 13.8783C11.7332 13.9826 11.7495 14.0908 11.7998 14.1844L13.5998 17.2969C13.7123 17.5031 13.9467 17.5688 14.1529 17.5031L16.3936 16.6031C16.8623 16.9594 17.3592 17.2594 17.9123 17.4844L18.2498 19.8656C18.2967 20.0906 18.4748 20.25 18.6998 20.25H22.2998C22.5248 20.25 22.7123 20.0906 22.7404 19.8656L23.0779 17.4844C23.6311 17.2594 24.1373 16.9594 24.5967 16.6031L26.8373 17.5031C27.0436 17.5781 27.2779 17.5031 27.3904 17.2969L29.1904 14.1844C29.3029 13.9781 29.2561 13.7438 29.0779 13.6125L27.1936 12.1313ZM20.4998 14.625C18.6436 14.625 17.1248 13.1063 17.1248 11.25C17.1248 9.39375 18.6436 7.875 20.4998 7.875C22.3561 7.875 23.8748 9.39375 23.8748 11.25C23.8748 13.1063 22.3561 14.625 20.4998 14.625Z" fill="#3C4045"/>
<path d="M18.9537 29.067C19.027 29.0303 19.1003 29.012 19.1737 29.012C19.2103 29.012 19.28 29.0267 19.3827 29.056C19.478 29.0927 19.5293 29.1807 19.5367 29.32L19.5477 29.617L19.5257 30.42C19.5037 30.86 19.4927 31.234 19.4927 31.542L19.5037 32.015C19.511 32.081 19.5147 32.1763 19.5147 32.301C19.5147 32.6677 19.4633 32.9133 19.3607 33.038C19.2947 33.104 19.225 33.137 19.1517 33.137C18.9903 33.137 18.873 33.0307 18.7997 32.818C18.7557 32.708 18.73 32.433 18.7227 31.993C18.7153 31.5163 18.6933 31.2597 18.6567 31.223C18.6347 31.1863 18.3413 31.168 17.7767 31.168C17.344 31.168 17.0983 31.1643 17.0397 31.157C16.9443 31.1423 16.8783 31.1203 16.8417 31.091C16.783 31.0323 16.7537 30.948 16.7537 30.838C16.761 30.6693 16.827 30.5557 16.9517 30.497C17.0837 30.4457 17.3953 30.4163 17.8867 30.409C18.3633 30.3943 18.62 30.3687 18.6567 30.332C18.7007 30.2807 18.7263 30.1157 18.7337 29.837C18.7557 29.5583 18.7813 29.3713 18.8107 29.276C18.8473 29.166 18.895 29.0963 18.9537 29.067ZM12.7057 32.532C12.713 32.4807 12.7497 32.411 12.8157 32.323C12.889 32.235 12.999 32.1177 13.1457 31.971C13.769 31.3477 14.1467 30.915 14.2787 30.673C14.3447 30.5263 14.3813 30.431 14.3887 30.387C14.4107 30.233 14.4253 30.068 14.4327 29.892C14.4473 29.628 14.4583 29.463 14.4657 29.397C14.4803 29.3383 14.5133 29.2723 14.5647 29.199C14.6233 29.1257 14.6673 29.0853 14.6967 29.078C14.7407 29.0633 14.803 29.056 14.8837 29.056C15.0597 29.056 15.1697 29.1037 15.2137 29.199C15.2357 29.265 15.2467 29.3933 15.2467 29.584C15.2467 29.7307 15.243 29.8517 15.2357 29.947L15.2137 30.508L15.4557 30.75C15.683 30.97 15.9323 31.2377 16.2037 31.553C16.5263 31.9343 16.728 32.18 16.8087 32.29C16.882 32.3927 16.9187 32.477 16.9187 32.543C16.9187 32.6163 16.8747 32.6933 16.7867 32.774C16.6913 32.8473 16.5887 32.884 16.4787 32.884C16.42 32.884 16.343 32.8437 16.2477 32.763C16.1157 32.6457 15.9067 32.4403 15.6207 32.147C15.1513 31.663 14.8947 31.421 14.8507 31.421C14.7993 31.421 14.7223 31.487 14.6197 31.619L14.2237 32.081L13.7507 32.598C13.4647 32.928 13.2337 33.093 13.0577 33.093C12.9183 33.0783 12.8193 33.0233 12.7607 32.928C12.7167 32.862 12.6947 32.7777 12.6947 32.675C12.6947 32.6163 12.6983 32.5687 12.7057 32.532ZM14.2787 35.656C14.2787 35.2893 14.2823 35.0803 14.2897 35.029C14.3043 34.9483 14.3337 34.886 14.3777 34.842C14.4657 34.7393 14.6087 34.677 14.8067 34.655C14.8947 34.6477 15.221 34.644 15.7857 34.644H16.5337L17.5677 34.655L18.0737 34.644C18.2277 34.6367 18.323 34.6147 18.3597 34.578C18.3963 34.5267 18.422 34.4497 18.4367 34.347C18.4367 34.2443 18.4183 34.182 18.3817 34.16C18.345 34.138 17.7547 34.1197 16.6107 34.105C15.496 34.105 14.8543 34.094 14.6857 34.072C14.5463 34.05 14.451 34.0133 14.3997 33.962C14.341 33.9033 14.3117 33.8227 14.3117 33.72C14.3117 33.5367 14.3923 33.4303 14.5537 33.401C14.605 33.3937 15.3273 33.39 16.7207 33.39H17.6337C18.4183 33.39 18.8437 33.401 18.9097 33.423C19.0123 33.4523 19.0893 33.5073 19.1407 33.588C19.1847 33.6613 19.2103 33.7273 19.2177 33.786C19.225 33.8447 19.2287 34.0427 19.2287 34.38V34.534C19.2287 34.974 19.148 35.2307 18.9867 35.304C18.8327 35.3773 18.2533 35.414 17.2487 35.414H16.9187C15.7673 35.414 15.1623 35.4323 15.1037 35.469C15.0597 35.491 15.0377 35.5643 15.0377 35.689C15.0377 35.887 15.0523 36.0007 15.0817 36.03C15.1037 36.052 15.342 36.063 15.7967 36.063H16.3137C16.9443 36.063 17.619 36.0703 18.3377 36.085C18.741 36.0923 18.9867 36.1033 19.0747 36.118C19.1553 36.1253 19.2213 36.1547 19.2727 36.206C19.3313 36.2647 19.3643 36.3417 19.3717 36.437C19.3717 36.525 19.3497 36.602 19.3057 36.668C19.225 36.7707 19.0783 36.833 18.8657 36.855C18.5577 36.8697 17.861 36.877 16.7757 36.877H14.6087L14.4657 36.734C14.3777 36.6607 14.3227 36.5727 14.3007 36.47C14.286 36.338 14.2787 36.0667 14.2787 35.656ZM26.7668 29.122C26.8181 29.0707 26.8988 29.045 27.0088 29.045C27.1848 29.045 27.2874 29.0817 27.3168 29.155C27.3534 29.243 27.3718 29.9617 27.3718 31.311C27.3718 32.6603 27.3534 33.379 27.3168 33.467C27.2654 33.5623 27.1774 33.61 27.0528 33.61C26.8841 33.61 26.7594 33.5477 26.6788 33.423C26.6274 33.3423 26.5908 33.0343 26.5688 32.499C26.5614 31.9637 26.5431 31.6887 26.5138 31.674C26.4918 31.652 26.2498 31.63 25.7878 31.608C25.4064 31.6007 25.1534 31.575 25.0288 31.531C24.9261 31.4943 24.8748 31.4137 24.8748 31.289C24.8748 31.1203 24.9554 31.0103 25.1168 30.959C25.2928 30.9003 25.5934 30.871 26.0188 30.871C26.3634 30.871 26.5468 30.849 26.5688 30.805C26.5834 30.7317 26.5908 30.5703 26.5908 30.321C26.5908 29.639 26.6494 29.2393 26.7668 29.122ZM20.8158 29.749C20.8158 29.6023 20.8854 29.496 21.0248 29.43C21.1128 29.3933 21.5234 29.3677 22.2568 29.353L23.7418 29.32C23.9618 29.3053 24.1048 29.298 24.1708 29.298C24.6181 29.298 24.8858 29.3713 24.9738 29.518C25.0104 29.5767 25.0288 29.6317 25.0288 29.683C25.0288 29.771 24.9848 29.8553 24.8968 29.936C24.8454 29.9727 24.7794 29.9983 24.6988 30.013C24.6254 30.0203 24.4018 30.0313 24.0278 30.046C23.5144 30.0607 23.2468 30.079 23.2248 30.101C23.1808 30.1303 23.1551 30.2623 23.1478 30.497L23.1368 30.772C23.1368 30.86 23.1441 30.9407 23.1588 31.014C23.1881 31.1167 23.3311 31.2963 23.5878 31.553C23.8738 31.839 24.2294 32.136 24.6548 32.444C24.8088 32.5613 24.9041 32.6823 24.9408 32.807C24.9481 32.829 24.9518 32.8547 24.9518 32.884C24.9518 32.9867 24.9041 33.0747 24.8088 33.148C24.7501 33.192 24.6914 33.2213 24.6328 33.236H24.6108C24.5668 33.236 24.4788 33.1993 24.3468 33.126C24.1781 33.0307 24.0278 32.9243 23.8958 32.807C23.6244 32.6017 23.3531 32.389 23.0818 32.169C22.8691 31.993 22.7298 31.9197 22.6638 31.949C22.6344 31.9563 22.4328 32.158 22.0588 32.554C21.7288 32.9207 21.4941 33.1407 21.3548 33.214C21.2814 33.2507 21.2191 33.269 21.1678 33.269C21.1018 33.269 21.0284 33.2397 20.9478 33.181C20.8818 33.1223 20.8488 33.027 20.8488 32.895C20.8488 32.763 20.8671 32.6677 20.9038 32.609C20.9331 32.565 21.0394 32.4513 21.2228 32.268L21.5418 31.927C21.8938 31.5457 22.1211 31.267 22.2238 31.091C22.3338 30.893 22.3888 30.6583 22.3888 30.387C22.3888 30.255 22.3851 30.1817 22.3778 30.167C22.3631 30.1377 22.3264 30.1193 22.2678 30.112C22.1358 30.0973 21.9231 30.09 21.6298 30.09C21.3291 30.09 21.1238 30.0717 21.0138 30.035C20.8818 29.991 20.8158 29.8957 20.8158 29.749ZM21.9818 35.48C21.9964 35.1793 22.0844 34.897 22.2458 34.633C22.4071 34.3837 22.6344 34.1857 22.9278 34.039C23.1624 33.9217 23.3201 33.852 23.4008 33.83C23.5108 33.7933 23.6684 33.7713 23.8738 33.764C24.1598 33.7347 24.4458 33.72 24.7318 33.72C25.0178 33.72 25.2488 33.7347 25.4248 33.764C25.5348 33.7787 25.7108 33.819 25.9528 33.885C26.1508 33.951 26.3121 34.0133 26.4368 34.072C26.6054 34.1453 26.7484 34.2663 26.8658 34.435C26.9978 34.611 27.0894 34.7907 27.1408 34.974C27.1701 35.084 27.1848 35.172 27.1848 35.238C27.1848 35.304 27.1701 35.392 27.1408 35.502C27.0674 35.8393 26.8804 36.1253 26.5798 36.36C26.2718 36.5873 25.8904 36.7377 25.4358 36.811C25.2671 36.8403 24.9408 36.855 24.4568 36.855H23.7088L23.2358 36.701C22.8764 36.5837 22.6198 36.47 22.4658 36.36C22.3191 36.25 22.1981 36.0923 22.1028 35.887C22.0221 35.711 21.9818 35.5753 21.9818 35.48ZM22.8398 35.392C22.8398 35.4433 22.8618 35.513 22.9058 35.601C22.9498 35.6963 22.9938 35.7587 23.0378 35.788C23.2651 35.9567 23.7968 36.041 24.6328 36.041C25.1608 36.041 25.5384 35.986 25.7658 35.876C25.9124 35.7953 26.0334 35.6963 26.1288 35.579C26.2168 35.4543 26.2608 35.3407 26.2608 35.238C26.2608 34.9153 25.9968 34.6733 25.4688 34.512C25.3588 34.4753 25.1168 34.446 24.7428 34.424L24.3358 34.413C24.1891 34.413 24.0718 34.4203 23.9838 34.435C23.6464 34.4863 23.3898 34.5963 23.2138 34.765C23.1184 34.8457 23.0304 34.952 22.9498 35.084C22.8764 35.2013 22.8398 35.304 22.8398 35.392Z" fill="#3C4045"/>
</svg>
